<?xml version="1.0" encoding="UTF-8"?>
<svg id="Layer_2" data-name="Layer 2" xmlns="http://www.w3.org/2000/svg" viewBox="0 0 738.09 630">
  <defs>
    <style>
      .cls-1 {
        fill: #a4be7b;
      }

      .cls-2 {
        fill: #5f8d4e;
      }
    </style>
  </defs>
  <g id="Layer_1-2" data-name="Layer 1">
    <g>
      <path class="cls-1" d="M30.45,133.97c23.71-34,73.99-43.16,109.74-59.92,35.66-16.72,72.19-31.9,109.92-43.73C322.59,7.59,405.06-4.35,480,14.75c31.3,7.98,60.44,22.15,85.14,42.45,179.99,149.07,67.02,201.86,131.39,349.2,12.46,28.53,40.85,51.49,41.53,83.22,1.33,61.68-51.83,91.59-104.88,94.01-43.9,2-83.79-18.94-128.23-14.48-43.34,4.35-81.64,11.73-122.63,25.21-49.39,16.24-105.33,42.09-160.68,34.17-59.39-8.5-78.48-71.29-94.98-114.88-18.71-49.41-26.43-102.41-28.26-154.82-1.51-43.39-16.06-79.26-43.75-112.87-23.04-27.97-48.28-71.44-27.16-107.37,.93-1.59,1.92-3.13,2.96-4.62Z"/>
      <path class="cls-2" d="M10.51,128.38c23.1-33.52,72.44-42.78,107.47-59.43,34.94-16.61,70.74-31.71,107.73-43.53C296.77,2.73,377.71-9.44,451.43,8.94c30.79,7.67,59.49,21.45,83.87,41.26,177.62,145.49,66.95,197.94,131,342.33,12.4,27.96,40.41,50.37,41.26,81.53,1.64,60.58-50.41,90.24-102.5,92.89-43.11,2.19-82.41-18.17-126.04-13.56-42.54,4.5-80.13,11.94-120.32,25.4-48.43,16.21-103.23,41.89-157.64,34.39-58.39-8.04-77.49-69.62-93.94-112.35-18.65-48.44-26.53-100.46-28.62-151.93-1.73-42.62-16.22-77.77-43.6-110.64C12.11,210.91-12.92,168.34,7.62,132.93c.91-1.57,1.87-3.08,2.88-4.55Z"/>
    </g>
  </g>
</svg>