<?xml version="1.0" encoding="UTF-8"?>
<svg id="Layer_2" data-name="Layer 2" xmlns="http://www.w3.org/2000/svg" viewBox="0 0 74 74">
  <defs>
    <style>
      .cls-1 {
        fill: #fff;
      }

      .cls-2 {
        fill: #a4be7b;
      }
    </style>
  </defs>
  <g id="Page_5" data-name="Page 5">
    <g>
      <path class="cls-2" d="M30.55,73.42c-11.71-2.25-20.46-8.62-26.21-19.05C1.84,49.84,.48,44.95,.12,39.79c-.01-.21-.08-.42-.12-.62,0-1.45,0-2.89,0-4.34,.19-1.42,.31-2.86,.58-4.27C2.82,18.85,9.2,10.1,19.63,4.34,24.17,1.84,29.09,.47,34.27,.12c.19-.01,.37-.08,.56-.12,1.45,0,2.89,0,4.34,0,1.43,.19,2.87,.31,4.28,.58,11.71,2.25,20.46,8.62,26.21,19.05,2.5,4.52,3.86,9.41,4.22,14.58,.01,.21,.08,.42,.12,.62,0,1.49,0,2.99,0,4.48-.18,1.26-.33,2.52-.53,3.77-.65,4.12-2.01,8.01-4.03,11.66-.27,.48-.28,.89-.12,1.41,1.54,4.75,3.06,9.52,4.58,14.27,.01,.04,.06,.07,.1,.1,0,.39,0,.77,0,1.16-.39,1.15-1.16,1.92-2.31,2.31h-1.16c-3.08-1.01-6.15-2.01-9.23-3.02-1.76-.57-3.52-1.16-5.29-1.68-.34-.1-.82-.07-1.13,.09-4.05,2.22-8.37,3.62-12.94,4.27-.88,.13-1.76,.22-2.64,.33-1.49,0-2.99,0-4.48,0-1.43-.19-2.87-.31-4.28-.58Zm33.71-14.14c-.3-.94-.58-1.89-.92-2.81-.43-1.17-.31-2.23,.35-3.3,1.87-3.04,3.19-6.32,3.86-9.82,1.75-9.08,.03-17.43-5.51-24.88-5.12-6.89-11.97-11.08-20.47-12.33-8.43-1.24-16.17,.67-23.05,5.76-6.34,4.7-10.46,10.92-12.05,18.67-1.84,8.98-.11,17.28,5.29,24.71,4.71,6.48,11.01,10.62,18.87,12.25,7.55,1.57,14.77,.49,21.49-3.3,1.84-1.04,3.43-1.32,5.43-.57,2.92,1.1,5.94,1.95,9.07,2.95-.82-2.55-1.59-4.95-2.36-7.35Z"/>
      <path class="cls-1" d="M57.86,64.27c-2.04-.78-3.68-.5-5.57,.54-6.91,3.82-14.32,4.86-22.05,3.2-8.04-1.73-14.47-6.01-19.23-12.66-5.48-7.63-7.18-16.12-5.22-25.27,1.69-7.9,5.96-14.21,12.5-18.97,7.08-5.15,15.04-7.03,23.67-5.7,8.7,1.34,15.69,5.67,20.88,12.75,5.61,7.65,7.31,16.19,5.44,25.44-.72,3.57-2.1,6.9-4.04,9.99-.68,1.09-.82,2.17-.38,3.37,.34,.95,.62,1.91,.92,2.88,.77,2.46,1.54,4.91,2.36,7.52-3.2-1.05-6.29-1.94-9.27-3.09Zm-2.34-27.26c0-2-1.64-3.67-3.65-3.7-2.03-.03-3.74,1.65-3.75,3.67,0,2,1.64,3.67,3.65,3.7,2.03,.03,3.74-1.65,3.75-3.67Zm-18.51,3.55c2,0,3.68-1.66,3.69-3.65,.02-2.02-1.67-3.72-3.7-3.72-2,0-3.68,1.66-3.69,3.65-.02,2.02,1.67,3.72,3.7,3.72Zm-14.83-.12c2,0,3.68-1.64,3.71-3.63,.03-2.02-1.65-3.73-3.68-3.74-2,0-3.68,1.64-3.71,3.63-.03,2.02,1.65,3.73,3.68,3.74Z"/>
      <g>
        <circle class="cls-2" cx="22.43" cy="36.5" r="4.12"/>
        <circle class="cls-2" cx="37.26" cy="36.5" r="4.12"/>
        <circle class="cls-2" cx="52.08" cy="36.5" r="4.12"/>
      </g>
    </g>
  </g>
</svg>