<?xml version="1.0" encoding="UTF-8"?>
<svg id="Layer_2" data-name="Layer 2" xmlns="http://www.w3.org/2000/svg" viewBox="0 0 74.46 71">
  <defs>
    <style>
      .cls-1 {
        fill: #5f8d4e;
      }
    </style>
  </defs>
  <g id="Page_3" data-name="Page 3">
    <path class="cls-1" d="M.42,28.6c1.18,5.87,4.95,11.23,6.2,17.1,.94,4.43,.42,8.99,1.22,13.44s3.35,9.1,8.33,10.97c7.74,2.9,16.31-2.17,24.78-2.78,7.93-.57,16.5,2.77,23.56-.26,6.34-2.72,8.35-9.42,8.15-15.29s-1.87-11.84-.1-17.53c1.93-6.2,3.45-12.44-1.03-18.13C64.74,7.48,53.58,1,40.91,.14c-9.91-.67-20.51,.95-28.83,5.59C2.75,10.93-1.41,19.52,.42,28.6Z"/>
  </g>
</svg>