<?xml version="1.0" encoding="UTF-8"?>
<svg xmlns="http://www.w3.org/2000/svg" xmlns:xlink="http://www.w3.org/1999/xlink" viewBox="0 0 429.46 442.7">
  <defs>
    <style>
      .cls-1, .cls-2 {
        fill: #fff;
      }

      .cls-3 {
        stroke: #c64f4f;
        stroke-width: .44px;
      }

      .cls-3, .cls-4, .cls-5, .cls-6, .cls-7, .cls-8 {
        stroke-miterlimit: 10;
      }

      .cls-3, .cls-4, .cls-5, .cls-6, .cls-7, .cls-8, .cls-9 {
        fill: none;
      }

      .cls-10 {
        opacity: .19;
      }

      .cls-10, .cls-11, .cls-12, .cls-13, .cls-14, .cls-15 {
        mix-blend-mode: multiply;
      }

      .cls-10, .cls-12 {
        fill: #6d3e3b;
      }

      .cls-16, .cls-17 {
        fill: #f6c03b;
      }

      .cls-4 {
        stroke: #fefefe;
        stroke-width: 1.14px;
      }

      .cls-5 {
        stroke: #337f53;
        stroke-width: 1.03px;
      }

      .cls-18 {
        fill: #ec2f00;
      }

      .cls-11 {
        fill: url(#linear-gradient);
      }

      .cls-6 {
        stroke: #47291f;
      }

      .cls-6, .cls-7 {
        stroke-width: .59px;
      }

      .cls-19, .cls-13 {
        fill: #3b9766;
      }

      .cls-20 {
        isolation: isolate;
      }

      .cls-7 {
        stroke: #913a3a;
      }

      .cls-21 {
        fill: #b7e59c;
      }

      .cls-17 {
        opacity: .53;
      }

      .cls-22 {
        fill: #def9ff;
      }

      .cls-23 {
        fill: #8ebeed;
      }

      .cls-24 {
        fill: #245b3c;
      }

      .cls-25 {
        fill: #ff552e;
      }

      .cls-26 {
        fill: #47291f;
      }

      .cls-27 {
        fill: #c64f4f;
      }

      .cls-28, .cls-15 {
        fill: #c62100;
      }

      .cls-29 {
        fill: #f9634e;
      }

      .cls-8 {
        stroke: #76ad9c;
        stroke-width: 4.16px;
      }

      .cls-30 {
        opacity: .58;
      }

      .cls-30, .cls-31, .cls-32 {
        fill: #93bc7e;
      }

      .cls-13 {
        opacity: .77;
      }

      .cls-33 {
        fill: #df3114;
      }

      .cls-34 {
        opacity: .66;
      }

      .cls-35 {
        fill: #ff9588;
      }

      .cls-36 {
        clip-path: url(#clippath);
      }

      .cls-37 {
        fill: #a04040;
      }

      .cls-14 {
        fill: url(#linear-gradient-2);
      }

      .cls-38 {
        fill: #5d7f9b;
      }

      .cls-2 {
        mix-blend-mode: overlay;
        opacity: .5;
      }

      .cls-39 {
        fill: #754234;
      }

      .cls-40 {
        fill: #222221;
      }

      .cls-41 {
        fill: #fff6e7;
      }

      .cls-42 {
        fill: #76ad9c;
      }

      .cls-43 {
        fill: #83c4b2;
      }

      .cls-44 {
        fill: #b0ddff;
      }

      .cls-45 {
        fill: #337f53;
      }

      .cls-32 {
        opacity: .44;
      }
    </style>
    <linearGradient id="linear-gradient" x1="415.15" y1="222.85" x2="335.14" y2="299.74" gradientUnits="userSpaceOnUse">
      <stop offset="0" stop-color="#fff"/>
      <stop offset="1" stop-color="#558075"/>
    </linearGradient>
    <linearGradient id="linear-gradient-2" x1="-299.43" y1="222.85" x2="-379.43" y2="299.74" gradientTransform="translate(-285.12) rotate(-180) scale(1 -1)" xlink:href="#linear-gradient"/>
    <clipPath id="clippath">
      <path class="cls-9" d="M82.08,223.14c-2.8,10.91-4.29,22.35-4.29,34.13,0,75.63,61.31,136.94,136.94,136.94s136.94-61.31,136.94-136.94c0-11.78-1.49-23.22-4.29-34.13H82.08Z"/>
    </clipPath>
  </defs>
  <g class="cls-20">
    <g id="Layer_2" data-name="Layer 2">
      <g id="Layer_1-2" data-name="Layer 1">
        <g>
          <g>
            <circle class="cls-17" cx="214.73" cy="131.07" r="117.24"/>
            <circle class="cls-16" cx="214.73" cy="131.23" r="103.35" transform="translate(-29.9 190.27) rotate(-45)"/>
          </g>
          <g>
            <path class="cls-22" d="M243.31,118.87h135.91l-19.75-5.62s-2.54-10.92-9.19-10.92-11.15,6.75-11.15,6.75c0,0,.2-22.65-16.82-22.65s-20.73,22.17-20.73,22.17c0,0-4.11-11.08-13.3-11.08s-12.71,14.14-12.71,14.14l-32.27,7.23Z"/>
            <path class="cls-22" d="M94.4,90.7h67.96l-9.88-2.81s-1.27-5.46-4.6-5.46-5.57,3.37-5.57,3.37c0,0,.1-11.33-8.41-11.33s-10.36,11.08-10.36,11.08c0,0-2.05-5.54-6.65-5.54s-6.36,7.07-6.36,7.07l-16.13,3.61Z"/>
          </g>
          <g>
            <g>
              <g>
                <g>
                  <g>
                    <path class="cls-8" d="M295.18,206.12s60.98-68.42,67.66-171.32"/>
                    <g>
                      <g>
                        <path class="cls-42" d="M360.92,59.12c2.85-5.27,10.86-16.27,26.24-10.89,1.17,.41,1.63,1.8,1,2.87-6.33,10.69-19.76,11.22-25.62,10.9-1.43-.08-2.29-1.62-1.61-2.88Z"/>
                        <path class="cls-31" d="M360.92,59.12c2.85-5.27,10.86-16.27,26.24-10.89,1.17,.41,1.63,1.8,1,2.87-6.33,10.69-19.76,11.22-25.62,10.9-1.43-.08-2.29-1.62-1.61-2.88Z"/>
                        <path class="cls-43" d="M362.91,59.31s8.54-7.02,12.95-7.5c4.41-.48-12.95,7.5-12.95,7.5Z"/>
                      </g>
                      <g>
                        <path class="cls-42" d="M360.92,59.12c-1.53-5.8-6.74-18.37-22.94-16.75-1.23,.12-2.01,1.37-1.64,2.55,3.64,11.87,16.57,15.55,22.35,16.62,1.41,.26,2.61-1.03,2.24-2.42Z"/>
                        <path class="cls-31" d="M360.92,59.12c-1.53-5.8-6.74-18.37-22.94-16.75-1.23,.12-2.01,1.37-1.64,2.55,3.64,11.87,16.57,15.55,22.35,16.62,1.41,.26,2.61-1.03,2.24-2.42Z"/>
                        <path class="cls-43" d="M358.94,58.83s-6.65-8.83-10.82-10.34c-4.18-1.5,10.82,10.34,10.82,10.34Z"/>
                      </g>
                    </g>
                    <g>
                      <g>
                        <path class="cls-42" d="M351.69,95.05c3.56-4.82,13.05-14.57,27.51-7.08,1.1,.57,1.36,2.02,.58,2.98-7.77,9.69-21.15,8.32-26.91,7.17-1.4-.28-2.04-1.92-1.19-3.08Z"/>
                        <path class="cls-31" d="M351.69,95.05c3.56-4.82,13.05-14.57,27.51-7.08,1.1,.57,1.36,2.02,.58,2.98-7.77,9.69-21.15,8.32-26.91,7.17-1.4-.28-2.04-1.92-1.19-3.08Z"/>
                        <path class="cls-43" d="M353.63,95.51s9.44-5.75,13.88-5.6c4.44,.15-13.88,5.6-13.88,5.6Z"/>
                      </g>
                      <g>
                        <path class="cls-42" d="M351.69,95.05c-.7-5.95-4.07-19.13-20.35-19.82-1.24-.05-2.18,1.07-1.99,2.3,1.93,12.27,14.21,17.74,19.77,19.6,1.36,.46,2.73-.65,2.56-2.08Z"/>
                        <path class="cls-31" d="M351.69,95.05c-.7-5.95-4.07-19.13-20.35-19.82-1.24-.05-2.18,1.07-1.99,2.3,1.93,12.27,14.21,17.74,19.77,19.6,1.36,.46,2.73-.65,2.56-2.08Z"/>
                        <path class="cls-43" d="M349.78,94.48s-5.33-9.68-9.25-11.76c-3.92-2.08,9.25,11.76,9.25,11.76Z"/>
                      </g>
                    </g>
                    <g>
                      <g>
                        <path class="cls-42" d="M338.53,133.2c3.96-4.49,14.25-13.4,28.02-4.69,1.05,.66,1.18,2.13,.32,3.02-8.58,8.98-21.78,6.47-27.42,4.84-1.38-.4-1.87-2.09-.92-3.17Z"/>
                        <path class="cls-31" d="M338.53,133.2c3.96-4.49,14.25-13.4,28.02-4.69,1.05,.66,1.18,2.13,.32,3.02-8.58,8.98-21.78,6.47-27.42,4.84-1.38-.4-1.87-2.09-.92-3.17Z"/>
                        <path class="cls-43" d="M340.42,133.83s9.9-4.92,14.31-4.39c4.41,.53-14.31,4.39-14.31,4.39Z"/>
                      </g>
                      <g>
                        <path class="cls-42" d="M338.53,133.2c-.18-5.99-2.42-19.41-18.57-21.5-1.23-.16-2.26,.88-2.18,2.12,.87,12.39,12.63,18.89,18.02,21.23,1.31,.57,2.77-.42,2.73-1.85Z"/>
                        <path class="cls-31" d="M338.53,133.2c-.18-5.99-2.42-19.41-18.57-21.5-1.23-.16-2.26,.88-2.18,2.12,.87,12.39,12.63,18.89,18.02,21.23,1.31,.57,2.77-.42,2.73-1.85Z"/>
                        <path class="cls-43" d="M336.67,132.48s-4.48-10.11-8.21-12.51c-3.73-2.41,8.21,12.51,8.21,12.51Z"/>
                      </g>
                    </g>
                    <g>
                      <g>
                        <path class="cls-42" d="M319.85,170.19c4.5-3.96,15.83-11.49,28.39-1.12,.95,.79,.9,2.26-.06,3.04-9.64,7.83-22.43,3.67-27.81,1.34-1.31-.57-1.59-2.31-.51-3.26Z"/>
                        <path class="cls-31" d="M319.85,170.19c4.5-3.96,15.83-11.49,28.39-1.12,.95,.79,.9,2.26-.06,3.04-9.64,7.83-22.43,3.67-27.81,1.34-1.31-.57-1.59-2.31-.51-3.26Z"/>
                        <path class="cls-43" d="M321.65,171.06s10.44-3.63,14.75-2.55c4.31,1.08-14.75,2.55-14.75,2.55Z"/>
                      </g>
                      <g>
                        <path class="cls-42" d="M319.85,170.19c.58-5.97,.05-19.56-15.71-23.67-1.2-.31-2.36,.59-2.43,1.83-.7,12.4,10.15,20.33,15.2,23.33,1.23,.73,2.8-.07,2.94-1.49Z"/>
                        <path class="cls-31" d="M319.85,170.19c.58-5.97,.05-19.56-15.71-23.67-1.2-.31-2.36,.59-2.43,1.83-.7,12.4,10.15,20.33,15.2,23.33,1.23,.73,2.8-.07,2.94-1.49Z"/>
                        <path class="cls-43" d="M318.1,169.24s-3.17-10.59-6.57-13.45c-3.4-2.86,6.57,13.45,6.57,13.45Z"/>
                      </g>
                    </g>
                    <g>
                      <path class="cls-42" d="M364.2,36.01c3.55-4.83,10.08-16.77-1.34-28.38-.87-.88-2.33-.7-3.02,.32-6.97,10.28-1.72,22.66,1.07,27.83,.68,1.26,2.44,1.38,3.29,.23Z"/>
                      <path class="cls-31" d="M364.2,36.01c3.55-4.83,10.08-16.77-1.34-28.38-.87-.88-2.33-.7-3.02,.32-6.97,10.28-1.72,22.66,1.07,27.83,.68,1.26,2.44,1.38,3.29,.23Z"/>
                      <path class="cls-43" d="M363.19,34.3s2.71-10.72,1.26-14.91c-1.45-4.2-1.26,14.91-1.26,14.91Z"/>
                    </g>
                  </g>
                  <g>
                    <path class="cls-24" d="M364.03,341.57l22.87-4c20.11-18.46,34.9-45.04,42.05-79.38-61.82,14.57-162.6,106.07-162.6,106.07,42.14,9.58,80.91,3.12,110.5-18.46l-12.82-4.23Z"/>
                    <g>
                      <g>
                        <path class="cls-31" d="M428.94,130.36c-9.11,6.08-17.83,12.49-26.18,19.15l3.44,13.79-12.16-6.63c-82.12,69.4-126.03,163.82-139.37,229.35,0,0,56.05-13.58,104.57-63.9l-17.79-15.47,24.71,7.96c22.15-25.05,42.02-58.27,53.21-102l-20.09-13.86,23.08,.92c4.3-20.82,6.71-43.83,6.57-69.31Z"/>
                        <path class="cls-19" d="M359.25,322.11l-17.79-15.47,24.71,7.96c22.15-25.05,42.02-58.27,53.21-102l-20.09-13.86,23.08,.92c4.3-20.82,6.71-43.83,6.57-69.31,0,0-87.47,174.48-174.27,255.65,0,0,56.05-13.58,104.57-63.9Z"/>
                      </g>
                      <path class="cls-4" d="M254.67,386.01s99.34-99.42,174.27-255.65"/>
                      <line class="cls-4" x1="364.73" y1="184.06" x2="373.98" y2="230.06"/>
                      <line class="cls-4" x1="349.33" y1="267.35" x2="398.62" y2="267.35"/>
                      <line class="cls-4" x1="305.8" y1="326.9" x2="298.17" y2="273.49"/>
                    </g>
                  </g>
                  <path class="cls-11" d="M419.39,212.6l-20.09-13.86,23.08,.92c4.3-20.82,6.71-43.83,6.57-69.31-9.11,6.08-17.83,12.49-26.18,19.15l3.44,13.79-12.16-6.63c-82.12,69.4-126.03,163.82-139.37,229.35,0,0,18.24-4.42,42.91-17.56,29.93,1.14,57.16-6.54,79.26-22.66l-12.82-4.23,22.87-4c20.11-18.46,34.9-45.04,42.05-79.38-9.83,2.32-20.65,6.58-31.88,12.11,9.06-16.83,16.77-35.96,22.33-57.69Z"/>
                </g>
                <g>
                  <g>
                    <path class="cls-8" d="M134.27,206.12S73.3,137.69,66.61,34.79"/>
                    <g>
                      <g>
                        <path class="cls-42" d="M68.54,59.12c-2.85-5.27-10.86-16.27-26.24-10.89-1.17,.41-1.63,1.8-1,2.87,6.33,10.69,19.76,11.22,25.62,10.9,1.43-.08,2.29-1.62,1.61-2.88Z"/>
                        <path class="cls-31" d="M68.54,59.12c-2.85-5.27-10.86-16.27-26.24-10.89-1.17,.41-1.63,1.8-1,2.87,6.33,10.69,19.76,11.22,25.62,10.9,1.43-.08,2.29-1.62,1.61-2.88Z"/>
                        <path class="cls-43" d="M66.55,59.31s-8.54-7.02-12.95-7.5c-4.41-.48,12.95,7.5,12.95,7.5Z"/>
                      </g>
                      <g>
                        <path class="cls-42" d="M68.54,59.12c1.53-5.8,6.74-18.37,22.94-16.75,1.23,.12,2.01,1.37,1.64,2.55-3.64,11.87-16.57,15.55-22.35,16.62-1.41,.26-2.61-1.03-2.24-2.42Z"/>
                        <path class="cls-31" d="M68.54,59.12c1.53-5.8,6.74-18.37,22.94-16.75,1.23,.12,2.01,1.37,1.64,2.55-3.64,11.87-16.57,15.55-22.35,16.62-1.41,.26-2.61-1.03-2.24-2.42Z"/>
                        <path class="cls-43" d="M70.51,58.83s6.65-8.83,10.82-10.34c4.18-1.5-10.82,10.34-10.82,10.34Z"/>
                      </g>
                    </g>
                    <g>
                      <g>
                        <path class="cls-42" d="M77.77,95.05c-3.56-4.82-13.05-14.57-27.51-7.08-1.1,.57-1.36,2.02-.58,2.98,7.77,9.69,21.15,8.32,26.91,7.17,1.4-.28,2.04-1.92,1.19-3.08Z"/>
                        <path class="cls-31" d="M77.77,95.05c-3.56-4.82-13.05-14.57-27.51-7.08-1.1,.57-1.36,2.02-.58,2.98,7.77,9.69,21.15,8.32,26.91,7.17,1.4-.28,2.04-1.92,1.19-3.08Z"/>
                        <path class="cls-43" d="M75.82,95.51s-9.44-5.75-13.88-5.6c-4.44,.15,13.88,5.6,13.88,5.6Z"/>
                      </g>
                      <g>
                        <path class="cls-42" d="M77.77,95.05c.7-5.95,4.07-19.13,20.35-19.82,1.24-.05,2.18,1.07,1.99,2.3-1.93,12.27-14.21,17.74-19.77,19.6-1.36,.46-2.73-.65-2.56-2.08Z"/>
                        <path class="cls-31" d="M77.77,95.05c.7-5.95,4.07-19.13,20.35-19.82,1.24-.05,2.18,1.07,1.99,2.3-1.93,12.27-14.21,17.74-19.77,19.6-1.36,.46-2.73-.65-2.56-2.08Z"/>
                        <path class="cls-43" d="M79.68,94.48s5.33-9.68,9.25-11.76c3.92-2.08-9.25,11.76-9.25,11.76Z"/>
                      </g>
                    </g>
                    <g>
                      <g>
                        <path class="cls-42" d="M90.93,133.2c-3.96-4.49-14.25-13.4-28.02-4.69-1.05,.66-1.18,2.13-.32,3.02,8.58,8.98,21.78,6.47,27.42,4.84,1.37-.4,1.87-2.09,.92-3.17Z"/>
                        <path class="cls-31" d="M90.93,133.2c-3.96-4.49-14.25-13.4-28.02-4.69-1.05,.66-1.18,2.13-.32,3.02,8.58,8.98,21.78,6.47,27.42,4.84,1.37-.4,1.87-2.09,.92-3.17Z"/>
                        <path class="cls-43" d="M89.03,133.83s-9.9-4.92-14.31-4.39c-4.41,.53,14.31,4.39,14.31,4.39Z"/>
                      </g>
                      <g>
                        <path class="cls-42" d="M90.93,133.2c.18-5.99,2.42-19.41,18.57-21.5,1.23-.16,2.26,.88,2.18,2.12-.87,12.39-12.63,18.89-18.02,21.23-1.31,.57-2.77-.42-2.73-1.85Z"/>
                        <path class="cls-31" d="M90.93,133.2c.18-5.99,2.42-19.41,18.57-21.5,1.23-.16,2.26,.88,2.18,2.12-.87,12.39-12.63,18.89-18.02,21.23-1.31,.57-2.77-.42-2.73-1.85Z"/>
                        <path class="cls-43" d="M92.79,132.48s4.48-10.11,8.21-12.51c3.73-2.41-8.21,12.51-8.21,12.51Z"/>
                      </g>
                    </g>
                    <g>
                      <g>
                        <path class="cls-42" d="M109.61,170.19c-4.5-3.96-15.83-11.49-28.39-1.12-.95,.79-.9,2.26,.06,3.04,9.64,7.83,22.43,3.67,27.81,1.34,1.31-.57,1.59-2.31,.51-3.26Z"/>
                        <path class="cls-31" d="M109.61,170.19c-4.5-3.96-15.83-11.49-28.39-1.12-.95,.79-.9,2.26,.06,3.04,9.64,7.83,22.43,3.67,27.81,1.34,1.31-.57,1.59-2.31,.51-3.26Z"/>
                        <path class="cls-43" d="M107.81,171.06s-10.44-3.63-14.75-2.55c-4.31,1.08,14.75,2.55,14.75,2.55Z"/>
                      </g>
                      <g>
                        <path class="cls-42" d="M109.61,170.19c-.58-5.97-.05-19.56,15.71-23.67,1.2-.31,2.36,.59,2.43,1.83,.7,12.4-10.15,20.33-15.2,23.33-1.23,.73-2.8-.07-2.94-1.49Z"/>
                        <path class="cls-31" d="M109.61,170.19c-.58-5.97-.05-19.56,15.71-23.67,1.2-.31,2.36,.59,2.43,1.83,.7,12.4-10.15,20.33-15.2,23.33-1.23,.73-2.8-.07-2.94-1.49Z"/>
                        <path class="cls-43" d="M111.36,169.24s3.17-10.59,6.57-13.45c3.4-2.86-6.57,13.45-6.57,13.45Z"/>
                      </g>
                    </g>
                    <g>
                      <path class="cls-42" d="M65.25,36.01c-3.55-4.83-10.08-16.77,1.34-28.38,.87-.88,2.33-.7,3.02,.32,6.97,10.28,1.72,22.66-1.07,27.83-.68,1.26-2.44,1.38-3.29,.23Z"/>
                      <path class="cls-31" d="M65.25,36.01c-3.55-4.83-10.08-16.77,1.34-28.38,.87-.88,2.33-.7,3.02,.32,6.97,10.28,1.72,22.66-1.07,27.83-.68,1.26-2.44,1.38-3.29,.23Z"/>
                      <path class="cls-43" d="M66.27,34.3s-2.71-10.72-1.26-14.91c1.45-4.2,1.26,14.91,1.26,14.91Z"/>
                    </g>
                  </g>
                  <g>
                    <path class="cls-24" d="M65.43,341.57l-22.87-4C22.45,319.1,7.66,292.53,.52,258.18c61.82,14.57,162.6,106.07,162.6,106.07-42.14,9.58-80.91,3.12-110.5-18.46l12.82-4.23Z"/>
                    <g>
                      <g>
                        <path class="cls-31" d="M.52,130.36c9.11,6.08,17.83,12.49,26.18,19.15l-3.44,13.79,12.16-6.63c82.12,69.4,126.03,163.82,139.37,229.35,0,0-56.05-13.58-104.57-63.9l17.79-15.47-24.71,7.96c-22.15-25.05-42.02-58.27-53.21-102l20.09-13.86-23.08,.92C2.78,178.85,.38,155.83,.52,130.36Z"/>
                        <path class="cls-19" d="M70.21,322.11l17.79-15.47-24.71,7.96c-22.15-25.05-42.02-58.27-53.21-102l20.09-13.86-23.08,.92C2.78,178.85,.38,155.83,.52,130.36c0,0,87.47,174.48,174.27,255.65,0,0-56.05-13.58-104.57-63.9Z"/>
                      </g>
                      <path class="cls-4" d="M174.78,386.01S75.44,286.59,.52,130.36"/>
                      <line class="cls-4" x1="64.73" y1="184.06" x2="55.48" y2="230.06"/>
                      <line class="cls-4" x1="80.12" y1="267.35" x2="30.84" y2="267.35"/>
                      <line class="cls-4" x1="123.66" y1="326.9" x2="131.28" y2="273.49"/>
                    </g>
                  </g>
                  <path class="cls-14" d="M10.07,212.6l20.09-13.86-23.08,.92C2.78,178.85,.38,155.83,.52,130.36c9.11,6.08,17.83,12.49,26.18,19.15l-3.44,13.79,12.16-6.63c82.12,69.4,126.03,163.82,139.37,229.35,0,0-18.24-4.42-42.91-17.56-29.93,1.14-57.16-6.54-79.26-22.66l12.82-4.23-22.87-4C22.45,319.1,7.66,292.53,.52,258.18c9.83,2.32,20.65,6.58,31.88,12.11-9.06-16.83-16.77-35.96-22.33-57.69Z"/>
                </g>
              </g>
              <g>
                <path class="cls-31" d="M82.08,223.14c-2.8,10.91-4.29,22.35-4.29,34.13,0,75.63,61.31,136.94,136.94,136.94s136.94-61.31,136.94-136.94c0-11.78-1.49-23.22-4.29-34.13H82.08Z"/>
                <g class="cls-34">
                  <g class="cls-36">
                    <path class="cls-24" d="M108.05,256.33l5.86,.2c.12,0,.24-.04,.33-.12h0c1.08-.96,2.64-1.19,3.95-.57l1.38,.65c.06,.03,.13,.04,.2,.04h8.43c.16,0,.3-.08,.39-.2l1.53-2.2c.15-.21,.1-.5-.11-.65l-2.6-1.9c-.15-.11-.22-.3-.18-.48l.5-2.33c.05-.22,.24-.37,.46-.37h2.67c.22,0,.41,.15,.46,.36l.75,3.2c.01,.05,.03,.1,.06,.14l1.72,2.76c.18,.29,.59,.3,.79,.02l.49-.69c.23-.33,.75-.24,.85,.16l.6,2.53c.09,.38,.58,.49,.83,.19l1.79-2.24c.11-.14,.13-.32,.07-.48l-.56-1.35c-.16-.37,.2-.76,.59-.63l3.92,1.31c.37,.12,.44,.61,.13,.83l-.4,.29c-.19,.14-.25,.4-.14,.61l.91,1.67c.1,.19,.07,.43-.09,.57l-2.49,2.31c-.15,.13-.19,.35-.11,.53l.81,1.94c.08,.19,.02,.42-.14,.55l-1.6,1.28c-.16,.13-.39,.14-.56,.02l-1.39-.93c-.15-.1-.23-.28-.21-.46l.14-.99c.07-.48-.54-.74-.84-.36l-.58,.73s-.08,.08-.12,.11l-2.31,1.42c-.22,.14-.29,.43-.15,.65l.32,.51c.21,.33-.05,.75-.44,.72l-1.43-.12c-.13-.01-.25,.03-.35,.12l-3.08,2.69c-.12,.11-.18,.28-.15,.44l.47,2.67c.06,.34,.44,.5,.73,.31h0c.3-.2,.71,0,.73,.36l.13,2.06c.02,.29,.29,.5,.57,.43l1.27-.28c.08-.02,.16-.01,.24,0l8.61,2.66c.17,.05,.3,.2,.33,.37l.56,3.17c.02,.12,.09,.23,.2,.31l2.63,1.86c.33,.24,.79-.03,.75-.44l-.33-3.46,2.91-2.52c.18-.15,.22-.41,.09-.61l-2.15-3.41c-.12-.19-.09-.43,.07-.59l1.17-1.17c.16-.16,.18-.41,.06-.6l-2.01-3.01c-.17-.26-.05-.62,.25-.71l4.57-1.46c.12-.04,.25-.03,.36,.03l5.71,2.95c.19,.1,.29,.32,.24,.54l-.5,2.01c-.03,.13,0,.27,.07,.38l.95,1.43c.13,.19,.37,.26,.58,.17l2.46-1.05c.12-.05,.21-.15,.26-.27l.6-1.55c.15-.39,.7-.41,.87-.03l2.89,6.31c.05,.11,.13,.19,.24,.24l3.26,1.43,4.92,3.57c.26,.19,.26,.57,.01,.76l-2.83,2.2s-.1,.06-.15,.08l-4.19,1.28s-.08,.03-.12,.06l-3.96,2.58c-.19,.12-.27,.36-.19,.57l.66,1.73c.08,.21,.3,.34,.53,.3l3.4-.59c.29-.05,.56,.17,.56,.47v1.13c0,.22-.15,.41-.36,.46l-3.29,.82c-.08,.02-.15,.06-.21,.12l-2.39,2.24c-.25,.24-.67,.13-.78-.2l-.26-.79c-.04-.13-.03-.26,.03-.38l.65-1.21c.21-.38-.16-.82-.57-.68l-3.73,1.24c-.14,.05-.25,.16-.3,.29l-.98,2.78c-.05,.13-.15,.24-.28,.29l-2.96,1.15c-.15,.06-.26,.18-.29,.34l-1.41,6.15c-.03,.13-.12,.25-.24,.31l-5.36,2.94c-.18,.1-.28,.3-.24,.51l1.22,6.47c.02,.11,0,.23-.06,.33l-.76,1.3c-.2,.34-.69,.31-.85-.05l-1.78-4c-.07-.15-.21-.26-.37-.28l-7.02-.96c-.4-.06-.69,.39-.47,.73h0c.25,.39-.14,.87-.57,.7l-2.93-1.1c-.16-.06-.34-.03-.48,.08l-5.39,4.52c-.15,.13-.21,.34-.14,.52l2.44,6.99c.06,.16,.19,.28,.35,.31l3.98,.83c.18,.04,.36-.03,.47-.17l1.78-2.27c.07-.09,.17-.15,.28-.17l2.97-.59c.31-.06,.6,.19,.57,.51l-.46,4.92c-.02,.27,.17,.5,.44,.52l3.89,.3c.28,.02,.49,.28,.43,.56l-.85,4.57,1.51,2.46,5.41,.32c.64,.04,1.26-.21,1.69-.69l1.28-1.4c.4-.44,.97-.69,1.56-.69h2.93c.42,0,.83,.12,1.17,.36l.73,.49c.52,.34,1.16,.44,1.75,.27l3.12-.89c.51-.15,1.05-.09,1.53,.14l11.74,5.87c.44,.22,.79,.59,.99,1.04l1.71,3.91c.26,.58,.76,1.02,1.38,1.19l15.13,4.15c.92,.25,1.56,1.09,1.56,2.04v3.55c0,.67-.32,1.31-.86,1.71l-3.63,2.66c-.45,.33-.75,.82-.84,1.37l-1.39,8.6c-.13,.79-.68,1.43-1.44,1.68l-6.53,2.09c-.57,.18-1.03,.59-1.28,1.14l-4.63,10.14c-.32,.7-.99,1.17-1.76,1.23l-1.31,.1c-1.1,.08-1.95,1-1.95,2.11h0c0,.72-.37,1.39-.98,1.78l-7.08,4.53c-.39,.25-.69,.62-.85,1.06l-4.01,11.11c-.16,.44-.17,.92-.03,1.36l.97,3.05c.52,1.63-1.02,3.17-2.65,2.66l-1.48-.47c-.74-.24-1.3-.86-1.44-1.63l-2.47-13.29c-.04-.23-.05-.47-.01-.7l2.72-18,1.86-11.8c.13-.83-.24-1.66-.95-2.11l-3.28-2.11c-.27-.17-.49-.4-.66-.67l-6.05-9.87c-.18-.29-.29-.63-.31-.97l-.24-3.86c-.04-.72,.28-1.41,.86-1.84l3.4-2.49c.54-.4,.86-1.03,.86-1.71v-2.01c0-1.17-.95-2.12-2.12-2.12h-1.89c-.33,0-.65-.08-.95-.22l-4.4-2.2-2.42-3.81h-4.16l-3.4-2.72s-.09-.06-.15-.08l-11.18-3.73c-.11-.04-.2-.11-.26-.2l-6.26-10.26c-.3-.49-1.05-.14-.86,.41l.72,2.08c.18,.51-.5,.88-.83,.45l-6.53-8.45-7.96-10.73,1.73-11.08-10.04-5.89-5.89-8.31-10.06-3.35c-.21-.07-.44-.07-.65,0l-10.25,3.31c-.1,.03-.21,.05-.32,.05h-3.34c-.2,0-.4-.06-.57-.17l-6.39-4.16c-.62-.41-.63-1.32,0-1.74l4.44-2.96c.67-.45,.6-1.46-.13-1.8l-1.46-.7c-1-.48-.66-1.98,.45-1.98h0c1.1,0,1.45-1.48,.46-1.97l-2.76-1.38c-.84-.42-.74-1.64,.15-1.92l6.24-1.96c2.25-.71,4.64-.87,6.96-.48l14.76,2.5c2.75,.46,5.57,.09,8.1-1.07h0c2.86-1.31,6.09-1.61,9.15-.85l10.22,2.55c.18,.05,.32,.19,.35,.38l.2,1.12c.04,.22,.23,.38,.45,.39Zm28.26-10.78l-.24,.67c-.41,1.17,.25,2.45,1.44,2.8l8.34,2.45c.26,.08,.51,.2,.72,.37l2.76,2.14c.49,.38,.8,.96,.84,1.58l.3,4.92c.04,.73,.45,1.39,1.09,1.75l6.9,3.97c1.14,.66,2.6,.16,3.09-1.06l.83-2.04c.1-.25,.25-.48,.44-.68l1.69-1.77c1.09-1.14,.64-3.02-.85-3.55l-2.67-.94c-.87-.31-1.45-1.13-1.45-2.05h0c0-.77-.41-1.49-1.08-1.88l-6.32-3.69c-.21-.12-.4-.28-.56-.47l-2.75-3.24c-.41-.49-1.02-.77-1.66-.77h-8.81c-.92,0-1.75,.58-2.05,1.46Zm-5-1.46h-1.41c-.67,0-1.22,.55-1.22,1.22v.56c0,.67,.55,1.22,1.22,1.22h.91c.35,0,.68-.15,.91-.41l.5-.56c.7-.79,.14-2.03-.91-2.03Zm-5.63,5l1.25-1.46c.29-.33,.37-.79,.22-1.21l-.46-1.29c-.21-.59-.84-.93-1.45-.77l-2.84,.71c-.92,.23-1.24,1.38-.57,2.05l2.04,2.04c.5,.5,1.33,.47,1.79-.07Zm-16.67-3.6l-10.2-2.32c-.97-.22-1.96,.25-2.4,1.14l-.62,1.25c-.45,.89-.22,1.98,.55,2.62l.42,.35c.53,.44,1.23,.6,1.9,.44l1.56-.39c.52-.13,1.07-.06,1.54,.19l2.22,1.19c.17,.09,.33,.21,.47,.34l3.41,3.24c.55,.52,1.33,.72,2.06,.52l4.42-1.22c.4-.11,.83-.1,1.23,.02l3.81,1.22c.59,.19,1.24,.11,1.77-.21h0c1.3-.79,1.4-2.63,.19-3.55l-1.94-1.48c-.39-.3-.66-.72-.78-1.19l-.4-1.6c-.28-1.1-1.36-1.8-2.47-1.6l-5.89,1.06c-.29,.05-.58,.04-.86-.02Zm-8.71-6.22l7.93,3.4c.2,.08,.42,.11,.63,.06l5.64-1.21c1.09-.23,1.1-1.78,.02-2.03l-4.96-1.16c-.08-.02-.15-.05-.22-.08l-4.67-2.31c-.27-.13-.58-.14-.86-.03l-3.49,1.45c-.85,.35-.86,1.56-.01,1.92Zm8.38-3.59l.25,.3c.31,.37,.8,.52,1.26,.39l2.58-.72c.53-.15,.89-.63,.89-1.18v-.36c0-.81-.77-1.39-1.55-1.18l-2.84,.78c-.86,.24-1.18,1.28-.61,1.96Zm12.28,2.96l2.61,2.79c.18,.19,.42,.32,.69,.37l3.72,.63c.95,.16,1.71-.79,1.33-1.68l-.31-.74c-.19-.45-.63-.74-1.12-.74h-1.05c-.44,0-.85-.24-1.07-.62l-.8-1.43c-.22-.39-.62-.62-1.07-.62h-2.04c-1.07,0-1.62,1.28-.89,2.06Zm11.9,4.16h12.95c.24,0,.44-.2,.44-.44v-2.27c0-.23-.17-.41-.39-.44l-3.59-.38c-.06,0-.12,0-.17,.02l-5.37,1.64c-.19,.06-.4-.02-.51-.19l-.65-1.07c-.13-.22-.05-.51,.18-.62l1.81-.91c.08-.04,.16-.05,.25-.04l9.24,1.1c.26,.03,.49-.17,.49-.44v-1.99c0-.12,.05-.24,.14-.33l3.51-3.17c.3-.27,.11-.77-.3-.77h0c-.48,0-.61-.67-.16-.85l3.21-1.28s.03-.01,.05-.02l5.53-2.98s.03-.01,.04-.02l5.98-2.46c.4-.16,.35-.74-.07-.84l-12.7-2.89c-.06-.01-.12-.01-.18,0l-19.15,3.67c-.36,.07-.48,.53-.2,.77l1.98,1.67c.07,.06,.16,.09,.25,.1l7.07,.62c.05,0,.11,0,.16-.01l1.46-.41c.51-.14,.79,.56,.33,.81l-1.99,1.07c-.06,.03-.12,.05-.18,.05l-3.46,.2c-.06,0-.11,0-.17-.02l-6.07-2.09s-.08-.03-.12-.06l-2.1-1.53c-.13-.09-.29-.11-.43-.05l-4.76,2.01c-.28,.12-.36,.49-.15,.71l3.57,3.75s.1,.08,.16,.11l5.09,1.93c.11,.04,.24,.04,.35-.01l3.58-1.72c.41-.2,.82,.29,.54,.66l-1.66,2.24c-.04,.05-.09,.1-.15,.13l-3.8,2c-.12,.06-.25,.07-.37,.02l-4.34-1.81c-.29-.12-.61,.09-.61,.41v1.35c0,.2,.14,.38,.34,.43l3.38,.81c.15,.04,.27,.15,.32,.3l1.01,3.22c.06,.18,.23,.31,.42,.31Zm-14.93-8.59h0c.18,.22,.43,.36,.71,.41l3.36,.62c1.02,.19,1.8-.91,1.28-1.81l-.21-.37c-.2-.35-.56-.58-.96-.61l-3.15-.25c-1.08-.09-1.73,1.18-1.03,2Zm7.65-.59l.05,.13c.18,.48,.63,.79,1.14,.79h.1c1,0,1.58-1.15,.98-1.95l-.1-.13c-.23-.31-.59-.49-.98-.49h-.05c-.85,0-1.44,.85-1.14,1.65Zm32.91,5.68l7.69,.36c.42,.02,.82,.19,1.12,.48l8.32,8.04c.27,.26,.45,.6,.51,.97l2.6,16.54c.05,.32,.19,.63,.41,.87l2.31,2.61c.82,.93,2.33,.72,2.86-.41l3.08-6.55c.28-.6,.89-.99,1.56-.99h3.1c.49,0,.95-.21,1.28-.57l3.43-3.78c.19-.21,.43-.37,.7-.47l8.02-2.85c.4-.14,.73-.42,.93-.79l5.16-9.33c.23-.42,.28-.91,.13-1.36l-2.42-7.53c-.25-.76,.07-1.6,.75-2.01l7.07-4.24c1.34-.8,1.01-2.83-.52-3.17l-6.34-1.39s-.09-.02-.13-.02l-18.34-2.55c-.18-.02-.36-.02-.54,.01l-21.36,3.79c-.26,.05-.51,.15-.73,.31l-6.74,4.99c-.15,.11-.32,.2-.5,.26l-6.24,2c-1.11,.36-1.56,1.69-.88,2.64l2.39,3.39c.31,.44,.8,.7,1.33,.73Zm47.45,19.94l5.21,3.9h6.51l3.17-4.83-9.12-1.3-5.76,2.23Zm16.75,49.17l-1.78,2.08c-.06,.07-.11,.14-.17,.21l-5.75,7.58c-.99,1.31-1.18,3.05-.48,4.54l.33,.7c.57,1.22,.55,2.63-.04,3.83h0c-.85,1.71-.5,3.76,.85,5.1l6.65,6.57c.83,.82,1.94,1.27,3.1,1.27h5.6c.65,0,1.3-.15,1.89-.42l3.99-1.89c.27-.13,.58-.09,.81,.1l2.5,2.05c.14,.11,.31,.17,.48,.17h2.05c.42,0,.76,.34,.76,.76v5.43c0,.35,.08,.7,.24,1.02l3.83,7.66c.27,.53,.31,1.15,.13,1.71l-1.96,6.11c-.18,.55-.14,1.15,.11,1.67l1.92,4.05c.14,.3,.22,.64,.22,.97v4.13c0,.45,.13,.89,.38,1.26l5.67,8.51c.42,.63,1.13,1.01,1.89,1.01h6.59c.73,0,1.42-.35,1.84-.94l3.94-5.47c.28-.39,.43-.85,.43-1.33v-1.76c0-1.01,.67-1.91,1.65-2.18l.63-.18c.98-.28,1.65-1.17,1.65-2.18v-2.39c0-.6,.24-1.18,.67-1.61l4.27-4.27c.43-.43,.67-1,.67-1.61v-5.74c0-.4-.1-.78-.3-1.13l-1.07-1.87c-.51-.9-.35-2.03,.39-2.75l8.93-8.7c.3-.29,.51-.66,.62-1.06l.9-3.5c.54-2.11-1.36-4.03-3.47-3.52h0c-1.6,.38-3.27-.21-4.27-1.51l-1.16-1.5-3.08-1.68-4.85-13.29c-.09-.25,.24-.44,.41-.23l6.13,7.36,3.11,6.35c.94,1.92,3.18,2.82,5.19,2.07l8.63-3.21c.29-.11,.53-.32,.68-.59l2.44-4.44c.25-.45,.21-1-.11-1.41l-2.4-3.14c-.41-.54-1.16-.67-1.73-.3l-2.56,1.66c-.64,.41-1.5,.19-1.85-.49l-2.57-4.97c-.45-.86,.18-1.89,1.15-1.89h0c.42,0,.82,.21,1.06,.56l1.72,2.49c.26,.37,.69,.58,1.14,.56l3.74-.21c.37-.02,.73,.12,.99,.38l1.45,1.45c.24,.24,.57,.38,.91,.38h6.74c.36,0,.71,.15,.95,.42l4.81,5.31c.09,.1,.16,.21,.22,.33l5.32,11.8c.43,.96,1.77,1.02,2.29,.1l3.67-6.53c.08-.15,.2-.28,.33-.39l9.59-7.43c.69-.54,1.71-.24,2,.59l1.59,4.59c.2,.59,.79,.94,1.41,.85l1.39-.21c.67-.1,1.31,.34,1.45,1l.84,3.93c.02,.09,.03,.18,.03,.27v3.31c0,.18,.04,.36,.11,.52l2.03,4.58c.06,.14,.15,.27,.27,.39l.74,.74c.94,.94,2.52,0,2.14-1.27l-.73-2.47c-.05-.16-.13-.32-.24-.45l-2.07-2.53c-.19-.23-.29-.52-.29-.81h0c0-1.28,1.66-1.77,2.36-.7l1.58,2.42c.43,.66,1.36,.78,1.94,.25l3.92-3.58c.37-.34,.58-.81,.58-1.31v-2.31c0-.64-.35-1.23-.9-1.54l-1.88-1.06c-.91-.51-1.18-1.7-.58-2.56l.1-.14c.44-.63,1.24-.9,1.98-.67l2.41,.75c.53,.16,1.1,.07,1.55-.24l8.26-5.83c.36-.25,.61-.63,.71-1.06l1.69-7.48c.08-.36,.05-.73-.09-1.06l-1.43-3.47c-.2-.49-.17-1.05,.08-1.51l.88-1.64c.4-.74,1.26-1.1,2.06-.86l2.5,.74c.56,.16,1,.59,1.18,1.14l.57,1.71c.39,1.18,1.86,1.6,2.81,.8h0c.76-.63,.85-1.75,.22-2.5l-1.03-1.22c-.53-.62-.56-1.53-.08-2.19l1.73-2.36c.33-.45,.86-.72,1.43-.72h3.65c.65,0,1.25-.36,1.56-.93l4.63-8.53c.13-.23,.19-.49,.19-.75v-4.19c0-.87-.71-1.58-1.58-1.58h0c-1.44,0-2.12-1.76-1.07-2.74l5.28-4.88c.29-.27,.67-.42,1.07-.42h8.42c.32,0,.63-.1,.9-.28l6.2-4.29c.26-.18,.58-.28,.9-.28h2.18c1.44,0,2.13,1.77,1.07,2.74l-6.49,5.95c-.38,.35-.57,.87-.5,1.39l.8,5.61c.19,1.33,1.85,1.83,2.74,.82l6.03-6.81c.26-.29,.4-.66,.4-1.05v-2.63c0-.69,.45-1.31,1.12-1.51l5.61-1.71,6.73-2.8h2.8l7.81-7.41c.92-.87,.61-2.41-.58-2.85l-14.59-5.43c-.48-.18-1.02-.13-1.47,.13l-3.61,2.12c-.29,.17-.63,.25-.97,.23l-8.36-.49c-.42-.02-.81-.2-1.11-.5l-5.48-5.46c-.32-.32-.76-.5-1.21-.5h-13.19c-.43,0-.85,.16-1.17,.46l-3.33,3.1c-.41,.38-.99,.54-1.54,.42l-6.74-1.47c-.79-.17-1.35-.87-1.35-1.68v-1.19c0-.79-.54-1.48-1.32-1.67l-4.52-1.09c-.7-.17-1.43,.12-1.83,.72l-.85,1.29c-.43,.65-1.24,.93-1.98,.68l-5.27-1.77c-1.39-.47-1.59-2.36-.32-3.11l.58-.34c.57-.34,.9-.97,.84-1.63l-.05-.57c-.08-.83-.73-1.48-1.56-1.55l-17.42-1.51c-.32-.03-.64,.03-.93,.18l-12.92,6.59c-.57,.29-.94,.88-.94,1.53v.1c0,.67-.39,1.27-.99,1.56l-5.9,2.74c-.59,.27-1.28,.19-1.79-.21l-1.18-.94c-.49-.39-1.15-.48-1.72-.24l-6.53,2.72c-.72,.3-1.15,1.05-1.04,1.83h0c.18,1.23-.97,2.23-2.16,1.89l-4.81-1.35c-.9-.25-1.84,.26-2.11,1.16l-.02,.08c-.2,.67-.79,1.15-1.49,1.22l-7.67,.7c-.28,.03-.54,.12-.78,.27l-11.85,7.65c-.41,.27-.95,.23-1.32-.08l-1.45-1.22c-.67-.57-.45-1.65,.39-1.91l4.05-1.24c.11-.03,.21-.08,.31-.15h0c.69-.48,.62-1.53-.14-1.91l-15.15-7.53c-.34-.17-.74-.15-1.07,.04l-13.62,8.23c-.1,.06-.19,.13-.26,.22l-9.15,10.5c-.33,.37-.36,.92-.1,1.33l2.16,3.34c.28,.43,.8,.61,1.29,.45l3.62-1.21c.62-.21,1.29,.17,1.44,.81l.62,2.76c.13,.57,.67,.94,1.24,.86l2.31-.33c.38-.05,.7-.3,.86-.64l2.38-5.23c.11-.25,.13-.53,.05-.79l-.79-2.57c-.13-.41,0-.86,.31-1.15l5.33-4.9c.21-.19,.47-.29,.75-.29h.83c.99,0,1.49,1.19,.79,1.89l-3.73,3.77c-.34,.34-.42,.85-.2,1.28l.72,1.44c.2,.39,.61,.64,1.05,.61l4.21-.21c.41-.02,.8,.19,1.01,.54l.04,.07c.45,.74-.09,1.69-.95,1.69h-1.77c-.58,0-1.06,.45-1.11,1.02l-.15,1.86c-.03,.41-.29,.77-.67,.94l-8.4,3.56c-.15,.06-.31,.09-.47,.09l-7.29-.26c-.2,0-.4,.04-.58,.14l-4.72,2.62s-.07,.04-.1,.06l-5.22,4.04c-1.87,1.45-2.15,4.16-.63,5.96h0c.18,.21,.23,.5,.13,.75l-.79,2.17c-.11,.3-.4,.5-.72,.5h-2.53c-2.13,0-3.8,1.81-3.63,3.93l.21,2.57c.02,.3,.23,.57,.52,.66l4.3,1.43c.17,.06,.36,.05,.53-.02l4.03-1.66c.29-.12,.47-.4,.47-.7v-1.28c0-1.98,1.17-3.78,2.98-4.59l4.11-1.84c1.73-.77,3.69,.41,3.82,2.3h0c.01,.2,.1,.39,.25,.52l4.37,3.89c.26,.23,.64,.26,.93,.06l.61-.4c.33-.22,.44-.66,.24-1.01l-3.38-6.03c-.13-.23-.13-.5,0-.73l.91-1.68c.32-.59,1.2-.51,1.4,.13l.82,2.63c.03,.09,.07,.17,.12,.24l2.69,3.5s.04,.05,.05,.08l3.22,5.45c.22,.37,.7,.49,1.06,.26l1.14-.72c.26-.16,.4-.47,.35-.78h0c-.15-.84,.98-1.25,1.41-.51l1.49,2.59c.33,.58,.98,.89,1.64,.8l4.76-.66c2.02-.28,3.67,1.58,3.15,3.55l-.55,2.07c-.19,.72-.84,1.22-1.58,1.22h-4.76c-.1,0-.2,0-.3-.03l-8.07-1.5c-.96-.18-1.93,.24-2.46,1.07h0c-.63,.99-1.89,1.38-2.97,.92l-7.32-3.14c-.35-.15-.54-.54-.43-.91l.64-2.24c.14-.51-.26-1-.78-.97l-11.53,.77-.66,.06c-3.35,.32-6.45,1.93-8.65,4.48Zm52.22-17.29l.06,.31c.12,.6,.51,1.1,1.06,1.36l3.38,1.62c1.12,.54,1.45,1.98,.67,2.95h0c-.45,.56-1.16,.82-1.86,.69l-7.65-1.44c-.12-.02-.24-.03-.36-.03h-3.65c-1.45,0-2.38-1.54-1.71-2.82l1.64-3.15c.33-.64,.99-1.04,1.71-1.04h4.81c.92,0,1.71,.65,1.89,1.55Zm16.79,5.55v4.7c0,1.07-.86,1.93-1.93,1.93h-.9c-1.07,0-1.93-.86-1.93-1.93v-2.66c0-.3-.07-.6-.2-.86l-1.95-3.9c-.5-1-.04-2.22,1-2.65l2.17-.89c1.09-.45,2.32,.18,2.61,1.33l1.09,4.47c.04,.15,.06,.3,.06,.46Zm-6.96,64.32l-2.62,2.86c-.33,.36-.55,.81-.63,1.3l-.84,5.35c-.24,1.51,.93,2.88,2.46,2.88h.86c1.09,0,2.05-.71,2.38-1.74l2.59-8.2c.15-.46,.15-.95,.02-1.42h0c-.52-1.89-2.92-2.46-4.24-1.02Zm56.05-16.85l2.09,3.81c.07,.13,.17,.24,.28,.33l3.9,3.03c.51,.4,1.26,.25,1.58-.31l1.14-2c.28-.48,.13-1.1-.33-1.41l-7-4.75s-.05-.03-.07-.05h0c-.91-.73-2.16,.32-1.6,1.35Zm10.35,7.13h0c-.47,1.04,.02,2.26,1.09,2.68l3.44,1.35c.65,.25,1.39,.15,1.94-.28l.7-.54c1.04-.8,1.04-2.36,0-3.16l-1.05-.81c-.35-.27-.78-.41-1.22-.41h-3.08c-.78,0-1.49,.46-1.81,1.17Zm1.81-6.12l2.1,2.9c.17,.24,.41,.41,.69,.51l3.51,1.17c.64,.21,1.35-.06,1.67-.66l2.74-5.06c.22-.4,.22-.88,.02-1.29l-1.19-2.37c-.27-.54-.16-1.19,.26-1.61h0c.64-.64,.51-1.7-.26-2.18l-.78-.48c-.72-.44-1.66-.15-2.01,.62l-1.72,3.82c-.1,.22-.26,.42-.46,.56l-1.97,1.42c-.17,.12-.35,.2-.55,.24l-1.19,.23c-1,.19-1.47,1.36-.87,2.19Zm12.21-27.81l-.74,.61c-.25,.2-.33,.55-.19,.84l.74,1.62c.11,.25,.36,.41,.64,.41h0c.39,0,.7-.32,.7-.7v-2.22c0-.59-.69-.92-1.15-.55Zm-.21,7.68l-.83,2.57c-.08,.24-.05,.5,.07,.72l.41,.74c.28,.52,.98,.63,1.42,.24h0c.19-.17,.3-.42,.3-.68v-1.11c0-.18,.05-.36,.15-.51l.79-1.19c.4-.61-.03-1.42-.76-1.42h-.68c-.4,0-.75,.26-.87,.63Zm1.29,10.86h0c-.07,.62,.5,1.13,1.11,.99l.17-.04c.4-.09,.82,.1,1.01,.46l.62,1.18c.27,.51,.94,.64,1.39,.28l1.49-1.22c.27-.22,.39-.58,.31-.93l-.45-1.82c-.12-.49-.62-.79-1.11-.66l-3.85,.98c-.37,.09-.64,.41-.68,.78Zm1-5.45l.85,.84c.08,.08,.13,.17,.16,.27l.58,1.89c.09,.28,.34,.46,.63,.46h.26c.36,0,.66-.29,.66-.66v-1.18c0-.17-.07-.33-.18-.46l-2.01-2.1c-.3-.31-.82-.25-1.04,.12h0c-.15,.26-.11,.59,.1,.8Zm-1.84,13.55l-1.85,4.04c-.03,.07-.04,.15-.03,.23l.44,3.46c.03,.21,.21,.37,.42,.37h.37c.23,0,.42-.19,.42-.42v-1.95c0-.42,.54-.58,.77-.23l.75,1.15c.11,.17,.34,.24,.53,.15l.98-.46c.23-.11,.31-.4,.17-.61l-1.32-2.02c-.1-.15-.09-.35,.02-.49l.59-.74c.22-.28,.02-.68-.33-.68h-.93c-.06,0-.11,.01-.16,.03h0c-.36,.15-.72-.23-.54-.58l.23-.44c.08-.16,.26-.25,.43-.22l2.69,.39c.15,.02,.3-.04,.39-.16l1.28-1.64c.18-.23,.08-.56-.19-.66l-.87-.3c-.21-.07-.44,.03-.52,.23l-.4,.92c-.06,.15-.2,.24-.36,.25l-2.61,.14c-.16,0-.29,.1-.36,.24Zm18.37,3.15l-2.59,1.1c-.18,.08-.4,.03-.53-.12l-.24-.27c-.08-.09-.12-.2-.12-.31v-1.42c0-.21-.14-.39-.33-.45l-2.63-.79s-.09-.02-.13-.02h-.87c-.26,0-.47,.21-.47,.47v.16c0,.17,.1,.33,.25,.41l1.27,.65c.07,.04,.14,.1,.18,.17l.39,.63c.08,.12,.21,.2,.35,.22l.63,.06c.24,.02,.42,.22,.42,.46v.16c0,.08-.02,.15-.05,.22l-.34,.64c-.2,.37,.16,.79,.55,.66l.25-.08c.08-.02,.16-.03,.24-.01l2.08,.43c.05,.01,.1,.03,.15,.06l2.67,1.61c.26,.16,.3,.52,.08,.74l-.69,.66c-.31,.29-.1,.8,.32,.8h2.02c.12,0,.24,.05,.33,.14l1.33,1.34c.16,.16,.42,.18,.6,.05l2.35-1.7c.15-.11,.35-.12,.5-.03l1.14,.65c.15,.08,.23,.24,.23,.4v.55c0,.21,.14,.39,.34,.45l3.4,.95c.46,.13,.79-.43,.46-.77l-2.72-2.87c-.12-.13-.16-.32-.1-.48l.36-.97c.11-.3-.11-.63-.44-.63h-1.07c-.21,0-.39-.14-.45-.34l-.41-1.49c-.05-.17-.18-.29-.35-.33l-8.09-1.78c-.09-.02-.19-.01-.28,.03Zm-18.88,19.94l-5.93,2.39c-.65,.26-1.04,.95-.92,1.64l2.1,12.25c.12,.72,.75,1.24,1.48,1.24h6.65c.24,0,.47-.06,.68-.17l6.1-3.13c.5-.25,1.09-.21,1.55,.11l3.68,2.61c.49,.35,1.15,.37,1.66,.05l.64-.4c.77-.48,1.79-.17,2.16,.66l2.03,4.51c.24,.54,.78,.88,1.37,.88h4.15c.21,0,.41-.04,.6-.13l3.55-1.55c.29-.13,.53-.34,.69-.61l3.83-6.46c.14-.23,.21-.49,.21-.76v-7.22c0-.42-.18-.83-.49-1.11l-6.84-6.19c-.11-.1-.2-.21-.27-.33l-3.27-5.34c-.67-1.09-2.31-.9-2.7,.32l-.99,3.08c-.33,1.01-1.58,1.37-2.39,.69l-1.69-1.42c-.39-.33-.58-.82-.52-1.32l.24-1.99c.11-.89-.59-1.68-1.49-1.68h-2.54c-.38,0-.74,.14-1.01,.4l-3.9,3.59c-.48,.44-1.2,.52-1.77,.19h0c-.65-.38-1.49-.21-1.95,.39l-1.3,1.71c-.05,.06-.1,.12-.16,.18l-2.75,2.62c-.14,.13-.3,.23-.47,.31Zm57.9,18.63l1.34,3.63c.09,.24,.06,.5-.07,.71l-.44,.74c-.18,.3-.15,.68,.06,.95l1.12,1.39c.42,.53,1.27,.35,1.45-.3l.51-1.85c.06-.24,.23-.43,.45-.54l1.58-.72c.29-.14,.48-.43,.48-.75v-.28c0-.52-.48-.92-.99-.81l-1.81,.36c-.38,.08-.76-.12-.92-.47l-1.23-2.69c-.13-.29-.43-.48-.75-.48h0c-.58,0-.98,.58-.78,1.12Zm-.34,8.31l-.88-.22c-.25-.06-.52,0-.72,.16l-4.84,3.92c-.52,.42-.35,1.25,.28,1.44l2.43,.73c.37,.11,.78-.05,.97-.39l1.42-2.57c.04-.08,.1-.14,.16-.2l1.55-1.46c.48-.45,.27-1.25-.37-1.41Z"/>
                  </g>
                </g>
                <path class="cls-13" d="M252.53,362.7c-75.63,0-136.94-61.31-136.94-136.94,0-.88,.02-1.75,.04-2.62h-33.56c-2.8,10.91-4.29,22.35-4.29,34.13,0,75.63,61.31,136.94,136.94,136.94,42.23,0,79.99-19.12,105.11-49.18-19.88,11.24-42.84,17.67-67.31,17.67Z"/>
                <ellipse class="cls-21" cx="214.73" cy="223.14" rx="132.65" ry="25.21"/>
                <path class="cls-1" d="M188.53,297.79c2.76,10.86,12.59,18.89,24.31,18.89s21.55-8.03,24.31-18.89h-48.62Z"/>
                <path class="cls-40" d="M191.54,278.94c0,3.88-2.2,7.03-4.92,7.03s-4.92-3.15-4.92-7.03,2.2-7.03,4.92-7.03,4.92,3.15,4.92,7.03Z"/>
                <path class="cls-40" d="M244.45,278.94c0,3.88-2.2,7.03-4.92,7.03s-4.92-3.15-4.92-7.03,2.2-7.03,4.92-7.03,4.92,3.15,4.92,7.03Z"/>
                <path class="cls-33" d="M190.93,303.8c4.29,7.68,12.49,12.89,21.91,12.89s17.62-5.2,21.91-12.89h-43.82Z"/>
                <path class="cls-29" d="M213.35,308.67c-5.24,0-10.15,1.38-14.4,3.8,3.98,2.66,8.75,4.21,13.89,4.21s10.29-1.67,14.35-4.52c-4.12-2.22-8.84-3.49-13.85-3.49Z"/>
              </g>
              <ellipse class="cls-24" cx="269.3" cy="220.29" rx="21.01" ry="2.87"/>
              <g>
                <ellipse class="cls-24" cx="114.64" cy="220.3" rx="7.74" ry="1.69"/>
                <ellipse class="cls-24" cx="139.33" cy="228.75" rx="7.74" ry="1.69"/>
                <ellipse class="cls-24" cx="163.01" cy="220.3" rx="7.74" ry="1.69"/>
                <g>
                  <g>
                    <path class="cls-39" d="M162.36,220.13h-.04c-1.1,0-1.99-.89-1.99-1.99v-33.92h4.01v33.92c0,1.1-.89,1.99-1.99,1.99Z"/>
                    <path class="cls-26" d="M160.33,190.41c.68,.08,1.36,.12,2.06,.12,.66,0,1.31-.04,1.95-.11v-6.2h-4.01v6.18Z"/>
                    <g>
                      <circle class="cls-45" cx="162.4" cy="170.28" r="17.59" transform="translate(-40.83 288.87) rotate(-76.62)"/>
                      <path class="cls-30" d="M162.4,152.69c-3.02,0-5.86,.76-8.34,2.1-.95,2.01-1.49,4.26-1.49,6.63,0,8.57,6.95,15.53,15.53,15.53,4.75,0,9-2.13,11.84-5.49,.03-.39,.04-.78,.04-1.18,0-9.71-7.87-17.59-17.59-17.59Z"/>
                    </g>
                  </g>
                  <g>
                    <path class="cls-39" d="M114.66,220.13h-.04c-1.1,0-1.99-.89-1.99-1.99v-33.92h4.01v33.92c0,1.1-.89,1.99-1.99,1.99Z"/>
                    <path class="cls-26" d="M112.64,190.41c.68,.08,1.36,.12,2.06,.12,.66,0,1.31-.04,1.95-.11v-6.2h-4.01v6.18Z"/>
                    <g>
                      <circle class="cls-45" cx="114.7" cy="170.28" r="17.59" transform="translate(-77.08 243.55) rotate(-76.95)"/>
                      <path class="cls-30" d="M114.7,152.69c-3.02,0-5.86,.76-8.34,2.1-.95,2.01-1.49,4.26-1.49,6.63,0,8.57,6.95,15.53,15.53,15.53,4.75,0,9-2.13,11.84-5.49,.03-.39,.04-.78,.04-1.18,0-9.71-7.87-17.59-17.59-17.59Z"/>
                    </g>
                  </g>
                  <g>
                    <path class="cls-39" d="M139.29,228.98h-.31c-1.1,0-1.99-.89-1.99-1.99v-36.38h4.28v36.38c0,1.1-.89,1.99-1.99,1.99Z"/>
                    <path class="cls-26" d="M137,197.22c.72,.08,1.46,.13,2.2,.13,.7,0,1.4-.04,2.08-.12v-6.62h-4.28v6.61Z"/>
                    <g>
                      <circle class="cls-19" cx="139.2" cy="175.71" r="18.79" transform="translate(-56.16 65.78) rotate(-22.25)"/>
                      <path class="cls-31" d="M139.2,156.92c-3.22,0-6.26,.81-8.91,2.24-1.02,2.15-1.59,4.55-1.59,7.09,0,9.16,7.43,16.59,16.59,16.59,5.07,0,9.61-2.28,12.65-5.87,.03-.42,.05-.84,.05-1.26,0-10.38-8.41-18.79-18.79-18.79Z"/>
                    </g>
                  </g>
                </g>
              </g>
              <g>
                <path class="cls-19" d="M260.23,220.33h21.6c1.53,0,2.81-1.18,2.92-2.71,.69-9.41,1.81-41.36-12.04-64.73-16.41-27.69-8.21-61.54-5.64-65.13,2.56-3.59-5.13-5.64-10.26,6.15-5.13,11.8-9.74,45.39-2.56,63.21,5.59,13.89,2.47,44.51,.82,57.36-.4,3.11,2.02,5.85,5.16,5.85Z"/>
                <path class="cls-45" d="M267.08,87.75c.71-1,.63-1.88,.03-2.37-12.8,7.7-11.14,42.11-1.57,75.16,7.54,26.06,4.79,50.2,3.15,59.79h13.14c1.53,0,2.81-1.18,2.92-2.71,.69-9.41,1.81-41.36-12.04-64.73-16.41-27.69-8.21-61.54-5.64-65.13Z"/>
              </g>
              <g>
                <path class="cls-39" d="M328.45,229.58c-3.35-4-16.54-7.04-21.81-7.57-.81-.08-1.62-.04-2.42,.13-16.17,3.5-19.38,6.64-20,7.56-.09,.09-.14,.18-.14,.27,0,1.35,10,2.44,22.34,2.44s22.34-1.09,22.34-2.44c0-.14-.1-.27-.3-.4Z"/>
                <path class="cls-2" d="M328.75,229.98c0-.14-.1-.27-.3-.4-3.35-4-16.54-7.04-21.81-7.57-.15-.01-.29,0-.44-.01,.92,1.03,2.45,2.15,5.04,3.08,6.65,2.38,6.12,.38,8.3,3.53,.93,1.34,1.75,2.35,2.51,3.12,4.13-.44,6.7-1.06,6.7-1.75Z"/>
              </g>
              <path class="cls-5" d="M306.21,222s1.68-25.16,8.6-36.82"/>
              <g>
                <g>
                  <g>
                    <path class="cls-28" d="M310.05,178.32c0,3.99,1.28,7.22,2.85,7.22s2.85-3.23,2.85-7.22-1.28-7.22-2.85-7.22-2.85,3.23-2.85,7.22Z"/>
                    <path class="cls-28" d="M315.8,193.46c0-3.99-1.28-7.22-2.85-7.22s-2.85,3.23-2.85,7.22,1.28,7.22,2.85,7.22,2.85-3.23,2.85-7.22Z"/>
                    <path class="cls-18" d="M305.42,182.59c2.82,2.82,6.01,4.2,7.12,3.09,1.11-1.11-.27-4.3-3.09-7.12-2.82-2.82-6.01-4.2-7.12-3.09-1.11,1.11,.27,4.3,3.09,7.12Z"/>
                    <path class="cls-28" d="M305.53,188.74c3.99,0,7.22-1.28,7.22-2.85s-3.23-2.85-7.22-2.85-7.22,1.28-7.22,2.85,3.23,2.85,7.22,2.85Z"/>
                    <path class="cls-18" d="M309.66,193.01c2.82-2.82,4.2-6.01,3.09-7.12-1.11-1.11-4.3,.27-7.12,3.09-2.82,2.82-4.2,6.01-3.09,7.12,1.11,1.11,4.3-.27,7.12-3.09Z"/>
                    <path class="cls-18" d="M320.37,182.59c-2.82,2.82-6.01,4.2-7.12,3.09-1.11-1.11,.27-4.3,3.09-7.12,2.82-2.82,6.01-4.2,7.12-3.09s-.27,4.3-3.09,7.12Z"/>
                    <ellipse class="cls-28" cx="320.26" cy="185.89" rx="7.22" ry="2.85"/>
                    <path class="cls-18" d="M316.13,193.01c-2.82-2.82-4.2-6.01-3.09-7.12,1.11-1.11,4.3,.27,7.12,3.09,2.82,2.82,4.2,6.01,3.09,7.12-1.11,1.11-4.3-.27-7.12-3.09Z"/>
                  </g>
                  <path class="cls-1" d="M307.45,185.54c0,3.01,2.44,5.44,5.44,5.44s5.44-2.44,5.44-5.44-2.44-5.44-5.44-5.44-5.44,2.44-5.44,5.44Z"/>
                </g>
                <path class="cls-31" d="M315.74,185.51c0,1.57-1.28,2.85-2.85,2.85s-2.85-1.28-2.85-2.85,1.28-2.85,2.85-2.85,2.85,1.28,2.85,2.85Z"/>
              </g>
            </g>
            <ellipse class="cls-32" cx="213.99" cy="430.81" rx="73.74" ry="11.89"/>
          </g>
          <g>
            <path class="cls-24" d="M163.62,235.79c0,1.95,22.26,3.52,49.72,3.52s49.72-1.58,49.72-3.52-22.26-3.52-49.72-3.52-49.72,1.58-49.72,3.52Z"/>
            <g>
              <g>
                <path class="cls-27" d="M224.1,11.86s2.39-5.12-1.15-8.92c-3.54-3.8-14.86-4.97-19.73,3.07-4.87,8.05-5.31,16.82-11.16,21.8-5.85,4.97,.15,16.96,1.9,20.11,1.76,3.15,20.77,12.56,33.94,7.34,13.17-5.22,8.48-19.19,4.97-23.17-3.51-3.99-8.08-10.13-8.94-15.4-.42-3.8,.17-4.83,.17-4.83Z"/>
                <polygon class="cls-18" points="210.96 32.09 199.12 35.66 184.49 223.1 206.92 223.1 210.96 131.04 212.61 131.04 216.28 223.1 238.91 223.1 225.06 35.27 210.96 32.09"/>
                <path class="cls-28" d="M218.98,92.22s-13.82,0-20.94-1.17c-.96-.16-2.06-.14-3.25,.01l-5.58,71.54c5.55,3.94,13.73,8.82,19.98,8.72l1.77-40.29h1.65l1.56,39.06c7.44-3.18,14.33-10.73,19.9-12.73l-5.31-71.99-1.34-2.8-8.43,9.64Z"/>
                <path class="cls-37" d="M206.51,15.81s-10.12,13.21-1.64,21.02c8.48,7.8,16.74,2.41,16.74,2.41,0,0-5.82-10.46-4.94-17.34,.87-6.88-10.16-6.09-10.16-6.09Z"/>
                <polygon class="cls-1" points="221.4 34.44 210.96 32.09 203.8 34.24 203.8 46.38 221.4 46.38 221.4 34.44"/>
                <path class="cls-35" d="M216.67,26.43l-.39,10.88c-.07,1.95-1.67,3.5-3.63,3.5h-.08c-2.12,0-3.78-1.8-3.62-3.91l1.39-17.8,6.32,7.33Z"/>
                <path class="cls-12" d="M210.22,20.8h0s1.61,7.95,6.25,11.28l.2-5.65-6.32-7.33-.13,1.69Z"/>
                <path class="cls-35" d="M223.79,7.76c-1.46,2.63-6.61,6.88-14.22,6.88-1.18,5.89,1.88,10.16,5.92,13.46,1.88,1.53,4.69,1.08,5.95-.98,.71-1.16,1.24-2.52,1.64-3.97l.84,.34v-5.1h0c.54-5.44-.13-10.62-.13-10.62Z"/>
                <path class="cls-27" d="M222.04,15.15s-2.32-1.02-5.37,.66c2.15-2.19,4.01-2.27,5.73-2.34l-.37,1.68Z"/>
                <path class="cls-35" d="M225.06,35.27l6.35,2.05c3.61,1.16,6.17,4.36,6.52,8.14l3.05,32.73c.18,1.92-.09,3.85-.79,5.65l-9.82,25.21c-1.12,2.89-4.62,4-7.21,2.3l-4.17-2.74,9.36-28.87-3.28-44.47Z"/>
                <path class="cls-10" d="M237.74,82.13c0,1.6,.55,3.07,1.46,4.25l.99-2.55c.7-1.8,.97-3.73,.79-5.65l-.17-1.84c-1.85,1.25-3.07,3.37-3.07,5.78Z"/>
                <polygon class="cls-28" points="207.31 214.13 185.19 214.13 184.49 223.1 206.92 223.1 207.31 214.13"/>
                <path class="cls-1" d="M237.93,45.45c-.35-3.77-2.92-6.97-6.52-8.14l-6.35-2.05,1.77,23.98c2.55-1.45,6.97-3.26,12.16-2.41l-1.06-11.39Z"/>
                <path class="cls-7" d="M221.38,18.39s-1.54,1.08-3.8,.35"/>
                <line class="cls-3" x1="228.34" y1="79.74" x2="230.01" y2="75.15"/>
                <circle class="cls-35" cx="208.4" cy="18.19" r="3.04"/>
                <line class="cls-6" x1="203.21" y1="223.1" x2="205.45" y2="150.12"/>
                <line class="cls-3" x1="207.31" y1="17.61" x2="210.35" y2="19.11"/>
                <path class="cls-28" d="M205.36,49.59v-15.82l-6.24,1.88-1.07,13.65c-.16,2.1,1.5,3.9,3.61,3.9h.08c2,0,3.62-1.62,3.62-3.62Z"/>
                <path class="cls-10" d="M224,93.13l-5.02,15.47,4.17,2.74c2.59,1.7,6.09,.59,7.21-2.3l3.22-8.26c-2.53-3.09-7.35-6.27-9.59-7.65Z"/>
                <path class="cls-23" d="M232.07,104.68c-7.4-13.62-51.32-20.55-52.33,17.19l-7.73,9.07s2.42,28.67,41.44,32.77c20.29-29.26,26.02-45.41,18.62-59.03Zm-2.89,15.73c-22.71-20.77-42.81-4.78-42.81-4.78,1.37-5.27,3.78-12.19,15.34-14.34,26.18-4.78,29.2,13.26,27.47,19.12Z"/>
                <circle class="cls-1" cx="201.67" cy="49.46" r="1.54"/>
                <path class="cls-38" d="M231.58,103.87c-5.97-9.03-27.93-14.64-41.29-5.07,.75,2.03,3.3,3.51,5.3,4.4,1.69-.8,3.7-1.46,6.11-1.91,15.49-2.83,22.87,2.33,25.96,8.23h0c.58-2.81,2.63-4.71,3.91-5.65Z"/>
                <path class="cls-28" d="M225.06,35.27l-6.08-1.37v15.79c0,1.95,1.58,3.53,3.53,3.53h.07c2.05,0,3.67-1.74,3.52-3.79l-1.04-14.16Z"/>
                <circle class="cls-1" cx="222.94" cy="49.46" r="1.54"/>
                <path class="cls-35" d="M199.12,35.66l-.47,.14-4.78,1.46c-4.01,1.23-7.1,4.45-8.16,8.52l-8,30.84c-.98,3.76,.46,7.74,3.61,10.01l22.39,16.12c1.07,.77,1.9,1.82,2.41,3.03l1.9,4.55c1.09,2.62,3.65,4.32,6.49,4.32h5.13c1.5,0,2.64-1.36,2.36-2.84l-2.39-12.93c-.4-2.14-2.05-3.83-4.18-4.28l-4.83-1.02-21.07-18.43,5.85-20.38,2.11,1.39"/>
                <path class="cls-10" d="M178.46,73.76l-.74,2.86c-.86,3.3,.15,6.76,2.53,9.1,1.13-1.41,1.81-3.2,1.81-5.14,0-2.83-1.43-5.33-3.6-6.81Z"/>
                <path class="cls-1" d="M193.21,62.45l2.2-7.68,2.11,1.39,1.6-20.51-.47,.14-4.78,1.46c-4.01,1.23-7.1,4.45-8.16,8.52l-3.12,12.02c3.54,.48,8.03,1.68,10.61,4.65Z"/>
                <line class="cls-3" x1="189.56" y1="75.15" x2="186.83" y2="72.91"/>
                <path class="cls-28" d="M217,71.16h-8.94c-1.76,0-3.19-1.43-3.19-3.19v-12.71h15.31v12.71c0,1.76-1.43,3.19-3.19,3.19Z"/>
                <rect class="cls-25" x="204.87" y="55.26" width="15.31" height="3.99"/>
                <polygon class="cls-28" points="216.28 223.1 238.91 223.1 238.25 214.13 215.93 214.13 216.28 223.1"/>
                <path class="cls-26" d="M216.28,223.1v11.31h30.62s1.17-11.31-8-11.31h-22.63Z"/>
                <path class="cls-1" d="M240.28,225.83c0,.75-.61,1.37-1.37,1.37h-13.85c-.75,0-1.37-.61-1.37-1.37h0c0-.75,.61-1.37,1.37-1.37h13.85c.75,0,1.37,.61,1.37,1.37h0Z"/>
                <line class="cls-6" x1="222.07" y1="223.1" x2="218.98" y2="148.68"/>
                <path class="cls-27" d="M246.93,232.27h-30.65v2.15h30.62s.09-.88,.02-2.15Z"/>
                <path class="cls-26" d="M206.95,223.1v11.31h-30.62s-1.17-11.31,8-11.31h22.63Z"/>
                <path class="cls-1" d="M182.95,225.83c0,.75,.61,1.37,1.37,1.37h13.85c.75,0,1.37-.61,1.37-1.37h0c0-.75-.61-1.37-1.37-1.37h-13.85c-.75,0-1.37,.61-1.37,1.37h0Z"/>
                <path class="cls-27" d="M176.3,232.27h30.65v2.15h-30.62s-.09-.88-.02-2.15Z"/>
                <path class="cls-44" d="M215.93,160.09s10.89-12.28,35.66-9.16l5.07-7.8s-18.59-7.61-37.68-3.12c-9.53,6.05-5.17,17.73-3.06,20.08Z"/>
                <path class="cls-1" d="M261.82,143.4s-7.14-3.01-10.01,2.31c-2.87,5.33,3.56,9.64,3.56,9.64l6.45-11.95Z"/>
                <path class="cls-41" d="M209.27,20.92c0,.54-.44,.98-.98,.98s-.98-.44-.98-.98,.44-.98,.98-.98,.98,.44,.98,.98Z"/>
                <path class="cls-37" d="M221.61,1.85c-4.48-2.86-14.03-3.06-18.4,4.15-1.72,2.84-2.88,5.76-3.93,8.58,11.65-.66,19.39-8.96,22.33-12.74Z"/>
                <path class="cls-44" d="M272.74,143.92s-12.11-5.11-16.98,3.93c-4.88,9.04,6.05,16.35,6.05,16.35l10.94-20.28Z"/>
                <path class="cls-1" d="M270.19,155.64c-3.02,5.6-6.78,9.43-8.39,8.56-1.61-.87-.47-6.11,2.55-11.71,3.02-5.6,6.78-9.43,8.39-8.56,1.61,.87,.47,6.11-2.55,11.71Z"/>
                <path class="cls-38" d="M266.07,153.7c-.43,.79-.93,1.34-1.13,1.24-.2-.11-.01-.83,.41-1.62s.93-1.34,1.13-1.24c.2,.11,.01,.83-.41,1.62Z"/>
                <path class="cls-38" d="M269.59,148.87c-.43,.79-.93,1.34-1.13,1.24-.2-.11-.01-.83,.41-1.62,.43-.79,.93-1.34,1.13-1.24,.2,.11,.01,.83-.41,1.62Z"/>
                <path class="cls-38" d="M263.92,159.39c-.43,.79-.93,1.34-1.13,1.24-.2-.11-.01-.83,.41-1.62s.93-1.34,1.13-1.24c.2,.11,.01,.83-.41,1.62Z"/>
                <path class="cls-38" d="M269.04,155.75c-.43,.79-.93,1.34-1.13,1.24s-.01-.83,.41-1.62c.43-.79,.93-1.34,1.13-1.24,.2,.11,.01,.83-.41,1.62Z"/>
                <path class="cls-35" d="M228.87,95.47l-2.51,8.17c-.42,1.38-2.05,1.97-3.26,1.18l-.04-.02c-.8-.52-1.16-1.51-.89-2.42l2.69-9.23,4.01,2.34Z"/>
                <polygon class="cls-12" points="223.08 23.15 221.74 22.57 222.94 23.64 223.08 23.15"/>
                <path class="cls-2" d="M223.92,18.39h0c.54-5.44-.13-10.62-.13-10.62-1.73,2.6-5.27,5.01-9.79,6.37-.16,3.28,1.07,9.72,3.78,14.86,1.42,.09,2.86-.57,3.66-1.88,.71-1.16,1.24-2.52,1.64-3.97l.84,.34v-5.1Z"/>
                <path class="cls-2" d="M235.98,81.36c.83,2.16,2.01,3.76,3.24,4.95l.96-2.48c.7-1.8,.97-3.73,.79-5.65l-3.05-32.73c-.29-3.07-2.04-5.76-4.63-7.29l-.05,.03s.16,36.52,2.73,43.17Z"/>
                <path class="cls-10" d="M182.6,77.45c-1.11-1.71,4.23-17.02,6.61-26.45,1.3-5.16,.18-8.19-1.11-9.88-1.11,1.34-1.93,2.92-2.38,4.65l-8,30.84c-.98,3.76,.46,7.74,3.61,10.01l22.39,16.12c.64,.46,1.18,1.03,1.63,1.66,0,0,0-.01,0-.02,1.76-10.65-21.65-25.24-22.76-26.95Z"/>
                <path class="cls-44" d="M172.81,134.86c1.04,3.67,3.36,9.38,8.47,14.79,1,.17,2.06,.32,3.21,.47,29.75,3.68,13.55-33.52,13.55-33.52-11.41-2.93-23.4,16.89-23.4,16.89,0,0-.79,.52-1.83,1.37Z"/>
                <path class="cls-38" d="M174.06,128.53q-2.05,2.41-2.06,2.41s2.42,28.67,41.44,32.77c.64-.93,1.27-1.84,1.89-2.75-30.13-4.14-38.85-23.64-41.27-32.43Z"/>
                <path class="cls-38" d="M226.44,125.37c-.7,1.33-6.76-.47-13.54-4.03-6.78-3.56-11.7-7.53-11-8.87,.7-1.34,6.76,.47,13.54,4.03,6.78,3.56,11.7,7.53,11,8.87Z"/>
                <path class="cls-2" d="M234.74,166.53c-4.12,5.88-11.68,21.87-7.11,56.57h11.28l-4.17-56.57Z"/>
                <path class="cls-15" d="M192.87,223.1c2.54-24.23-1.79-43.08-4.35-51.6l-4.03,51.6h8.38Z"/>
                <path class="cls-1" d="M281.63,163.49c-.81-.43-1.72-.72-2.54-.99-.37-.12-4.41-1.04-4.41-.81,0,1.51,.36,2.99,.84,4.4,.43,1.27,.87,2.92,1.84,3.89,1.54,1.54,4.03,1.53,5.57,0,1.54-1.54,1.53-4.03,0-5.57-.37-.37-.81-.67-1.29-.92Z"/>
                <path class="cls-1" d="M295.68,163.49c-.81-.43-1.72-.72-2.54-.99-.37-.12-4.41-1.04-4.41-.81,0,1.51,.36,2.99,.84,4.4,.43,1.27,.87,2.92,1.84,3.89,1.54,1.54,4.03,1.53,5.57,0,1.54-1.54,1.53-4.03,0-5.57-.37-.37-.81-.67-1.29-.92Z"/>
                <path class="cls-1" d="M294.61,179.73c-.68-.61-1.49-1.12-2.23-1.58-.33-.21-4.03-2.08-4.08-1.86-.36,1.46-.38,2.98-.26,4.47,.11,1.34,.13,3.05,.84,4.22,1.12,1.87,3.54,2.47,5.4,1.35,1.87-1.12,2.47-3.54,1.35-5.4-.27-.45-.63-.85-1.03-1.21Z"/>
              </g>
              <path class="cls-3" d="M222.55,24.81s-1.86-.22-2.69-.67"/>
            </g>
          </g>
        </g>
      </g>
    </g>
  </g>
</svg>