<svg width="135" height="124" viewBox="0 0 135 124" fill="none" xmlns="http://www.w3.org/2000/svg">
<rect width="135" height="124" fill="white"/>
<g clip-path="url(#clip0_181_2076)">
<path d="M15.5923 51.6845C17.2563 60.0348 22.5726 67.6596 24.3353 76.0099C25.6608 82.3117 24.9275 88.7985 26.0556 95.1287C27.1838 101.459 30.7797 108.074 37.8022 110.734C48.7168 114.859 60.8018 107.647 72.7458 106.779C83.9283 105.968 96.0133 110.72 105.969 106.409C114.909 102.54 117.744 93.0092 117.462 84.6589C117.18 76.3086 114.825 67.8161 117.321 59.7218C120.042 50.9021 122.186 42.0255 115.868 33.9313C106.293 21.6406 90.556 12.4225 72.6894 11.1992C58.7148 10.2461 43.7672 12.5506 32.0347 19.1511C18.878 26.5483 13.0117 38.7679 15.5923 51.6845Z" fill="#E5D9B6"/>
</g>
<path d="M68.36 76C67.7467 76 67.24 75.8133 66.84 75.44C66.44 75.04 66.24 74.5467 66.24 73.96V52.52L66.76 53.24L63.04 55.84C62.72 56.1067 62.3333 56.24 61.88 56.24C61.3467 56.24 60.8667 56.04 60.44 55.64C60.04 55.2133 59.84 54.72 59.84 54.16C59.84 53.4667 60.1867 52.8933 60.88 52.44L66.96 48.4C67.2 48.24 67.4533 48.1333 67.72 48.08C68.0133 48.0267 68.28 48 68.52 48C69.1333 48 69.6267 48.2 70 48.6C70.3733 48.9733 70.56 49.4533 70.56 50.04V73.96C70.56 74.5467 70.3467 75.04 69.92 75.44C69.52 75.8133 69 76 68.36 76Z" fill="#245B3C"/>
<defs>
<clipPath id="clip0_181_2076">
<rect width="105" height="101" fill="white" transform="translate(15 11)"/>
</clipPath>
</defs>
</svg>
