<svg width="135" height="124" viewBox="0 0 135 124" fill="none" xmlns="http://www.w3.org/2000/svg">
<rect width="135" height="124" fill="white"/>
<g clip-path="url(#clip0_181_903)">
<path d="M15.5923 51.6845C17.2563 60.0348 22.5726 67.6596 24.3353 76.0099C25.6608 82.3117 24.9275 88.7985 26.0556 95.1287C27.1838 101.459 30.7797 108.074 37.8022 110.734C48.7168 114.859 60.8018 107.647 72.7458 106.779C83.9283 105.968 96.0133 110.72 105.969 106.409C114.909 102.54 117.744 93.0092 117.462 84.6589C117.18 76.3086 114.825 67.8161 117.321 59.7218C120.042 50.9021 122.186 42.0255 115.868 33.9313C106.293 21.6406 90.556 12.4225 72.6894 11.1992C58.7148 10.2461 43.7672 12.5506 32.0347 19.1511C18.878 26.5483 13.0117 38.7679 15.5923 51.6845Z" fill="#E5D9B6"/>
</g>
<path d="M68.56 76.28C67.52 76.28 66.44 76.12 65.32 75.8C64.2267 75.48 63.2933 75 62.52 74.36C62.2267 74.12 62 73.8133 61.84 73.44C61.68 73.0667 61.6 72.7067 61.6 72.36C61.6 71.9867 61.76 71.6267 62.08 71.28C62.4267 70.9067 62.8933 70.72 63.48 70.72C63.9067 70.72 64.4 70.9333 64.96 71.36C65.4933 71.7067 66.0533 72 66.64 72.24C67.2533 72.48 67.88 72.6 68.52 72.6C69.9067 72.6 71.1067 72.3467 72.12 71.84C73.1333 71.3333 73.9067 70.6267 74.44 69.72C75 68.7867 75.28 67.7067 75.28 66.48C75.28 65.3333 75.0267 64.36 74.52 63.56C74.0133 62.7333 73.32 62.0933 72.44 61.64C71.5867 61.1867 70.6267 60.96 69.56 60.96C68.68 60.96 67.9067 61.1067 67.24 61.4C66.5733 61.6667 65.9733 61.9467 65.44 62.24C64.9067 62.5067 64.4133 62.64 63.96 62.64C63.2667 62.64 62.7467 62.4933 62.4 62.2C62.0533 61.88 61.8267 61.5067 61.72 61.08C61.64 60.6267 61.6267 60.2133 61.68 59.84L63.08 49.8C63.16 49.3467 63.3733 48.9733 63.72 48.68C64.0933 48.36 64.5467 48.2 65.08 48.2H76.8C77.3333 48.2 77.7733 48.3867 78.12 48.76C78.4933 49.1067 78.68 49.5467 78.68 50.08C78.68 50.6133 78.4933 51.0533 78.12 51.4C77.7733 51.7467 77.3333 51.92 76.8 51.92H66.08L66.52 51.56L65.24 60.16L64.64 58.96C64.88 58.6933 65.28 58.44 65.84 58.2C66.4267 57.9333 67.08 57.72 67.8 57.56C68.5467 57.3733 69.2933 57.28 70.04 57.28C71.8 57.28 73.3733 57.68 74.76 58.48C76.1733 59.2533 77.28 60.3333 78.08 61.72C78.88 63.1067 79.28 64.68 79.28 66.44C79.28 68.4133 78.84 70.1467 77.96 71.64C77.08 73.1067 75.84 74.2533 74.24 75.08C72.64 75.88 70.7467 76.28 68.56 76.28Z" fill="#245B3C"/>
<defs>
<clipPath id="clip0_181_903">
<rect width="105" height="101" fill="white" transform="translate(15 11)"/>
</clipPath>
</defs>
</svg>
