<svg width="135" height="124" viewBox="0 0 135 124" fill="none" xmlns="http://www.w3.org/2000/svg">
<rect width="135" height="124" fill="white"/>
<g clip-path="url(#clip0_181_974)">
<path d="M15.5923 51.6845C17.2563 60.0348 22.5726 67.6596 24.3353 76.0099C25.6608 82.3117 24.9275 88.7985 26.0556 95.1287C27.1838 101.459 30.7797 108.074 37.8022 110.734C48.7168 114.859 60.8018 107.647 72.7458 106.779C83.9283 105.968 96.0133 110.72 105.969 106.409C114.909 102.54 117.744 93.0092 117.462 84.6589C117.18 76.3086 114.825 67.8161 117.321 59.7218C120.042 50.9021 122.186 42.0255 115.868 33.9313C106.293 21.6406 90.556 12.4225 72.6894 11.1992C58.7148 10.2461 43.7672 12.5506 32.0347 19.1511C18.878 26.5483 13.0117 38.7679 15.5923 51.6845Z" fill="#E5D9B6"/>
</g>
<path d="M63.16 70.88C63.3733 70.88 63.6 70.92 63.84 71C64.08 71.0533 64.3467 71.1867 64.64 71.4C65.12 71.8267 65.6933 72.1867 66.36 72.48C67.0533 72.7467 67.84 72.88 68.72 72.88C69.7067 72.88 70.6267 72.6533 71.48 72.2C72.3333 71.72 73.0267 71.0533 73.56 70.2C74.0933 69.3467 74.36 68.3333 74.36 67.16C74.36 65.96 74.1067 64.9867 73.6 64.24C73.0933 63.4667 72.44 62.8933 71.64 62.52C70.84 62.12 70 61.92 69.12 61.92C68.6133 61.92 68.1867 61.9733 67.84 62.08C67.4933 62.16 67.16 62.2533 66.84 62.36C66.52 62.44 66.1733 62.48 65.8 62.48C65.2933 62.48 64.8933 62.3067 64.6 61.96C64.3067 61.5867 64.16 61.1467 64.16 60.64C64.16 60.32 64.2267 60.04 64.36 59.8C64.4933 59.56 64.68 59.2933 64.92 59L72.32 51.08L73.2 51.88H62.6C62.0667 51.88 61.6133 51.7067 61.24 51.36C60.8933 50.9867 60.72 50.5333 60.72 50C60.72 49.4933 60.8933 49.0667 61.24 48.72C61.6133 48.3733 62.0667 48.2 62.6 48.2H75.24C75.9333 48.2 76.44 48.4 76.76 48.8C77.1067 49.2 77.28 49.6667 77.28 50.2C77.28 50.4933 77.2 50.7733 77.04 51.04C76.9067 51.3067 76.7333 51.56 76.52 51.8L69.08 59.8L68.08 58.72C68.2933 58.6133 68.6533 58.5067 69.16 58.4C69.6667 58.2933 70.08 58.24 70.4 58.24C71.92 58.24 73.28 58.6267 74.48 59.4C75.7067 60.1733 76.6533 61.2133 77.32 62.52C78.0133 63.8 78.36 65.2533 78.36 66.88C78.36 68.8267 77.92 70.52 77.04 71.96C76.16 73.3733 74.9333 74.4667 73.36 75.24C71.8133 76.0133 70.0267 76.4 68 76.4C66.9867 76.4 65.9733 76.2667 64.96 76C63.9733 75.7067 63.12 75.2933 62.4 74.76C61.9467 74.4933 61.64 74.2133 61.48 73.92C61.32 73.6 61.24 73.2933 61.24 73C61.24 72.4933 61.4133 72.0133 61.76 71.56C62.1333 71.1067 62.6 70.88 63.16 70.88Z" fill="#245B3C"/>
<defs>
<clipPath id="clip0_181_974">
<rect width="105" height="101" fill="white" transform="translate(15 11)"/>
</clipPath>
</defs>
</svg>
