<svg width="135" height="124" viewBox="0 0 135 124" fill="none" xmlns="http://www.w3.org/2000/svg">
<rect width="135" height="124" fill="white"/>
<g clip-path="url(#clip0_181_874)">
<path d="M15.5923 51.6845C17.2563 60.0348 22.5726 67.6596 24.3353 76.0099C25.6608 82.3117 24.9275 88.7985 26.0556 95.1287C27.1838 101.459 30.7797 108.074 37.8022 110.734C48.7168 114.859 60.8018 107.647 72.7458 106.779C83.9283 105.968 96.0133 110.72 105.969 106.409C114.909 102.54 117.744 93.0092 117.462 84.6589C117.18 76.3086 114.825 67.8161 117.321 59.7218C120.042 50.9021 122.186 42.0255 115.868 33.9313C106.293 21.6406 90.556 12.4225 72.6894 11.1992C58.7148 10.2461 43.7672 12.5506 32.0347 19.1511C18.878 26.5483 13.0117 38.7679 15.5923 51.6845Z" fill="#E5D9B6"/>
</g>
<path d="M74.28 76C73.72 76 73.2533 75.8133 72.88 75.44C72.5067 75.04 72.32 74.5467 72.32 73.96V53.6L73.04 53.84L64.4 64.88L64.2 64.36H78.76C79.2933 64.36 79.7333 64.5467 80.08 64.92C80.4533 65.2667 80.64 65.7067 80.64 66.24C80.64 66.7467 80.4533 67.1733 80.08 67.52C79.7333 67.8667 79.2933 68.04 78.76 68.04H61.44C60.96 68.04 60.5067 67.8533 60.08 67.48C59.6533 67.08 59.44 66.6133 59.44 66.08C59.44 65.5733 59.6133 65.12 59.96 64.72L72.68 48.8C72.8667 48.5333 73.1067 48.3333 73.4 48.2C73.6933 48.0667 74 48 74.32 48C74.9067 48 75.3867 48.2 75.76 48.6C76.1333 48.9733 76.32 49.4533 76.32 50.04V73.96C76.32 74.5467 76.12 75.04 75.72 75.44C75.32 75.8133 74.84 76 74.28 76Z" fill="#245B3C"/>
<defs>
<clipPath id="clip0_181_874">
<rect width="105" height="101" fill="white" transform="translate(15 11)"/>
</clipPath>
</defs>
</svg>
