<svg width="135" height="124" viewBox="0 0 135 124" fill="none" xmlns="http://www.w3.org/2000/svg">
<rect width="135" height="124" fill="white"/>
<g clip-path="url(#clip0_181_1245)">
<path d="M15.5923 51.6845C17.2563 60.0348 22.5726 67.6596 24.3353 76.0099C25.6608 82.3117 24.9275 88.7985 26.0556 95.1287C27.1838 101.459 30.7797 108.074 37.8022 110.734C48.7168 114.859 60.8018 107.647 72.7458 106.779C83.9283 105.968 96.0133 110.72 105.969 106.409C114.909 102.54 117.744 93.0092 117.462 84.6589C117.18 76.3086 114.825 67.8161 117.321 59.7218C120.042 50.9021 122.186 42.0255 115.868 33.9313C106.293 21.6406 90.556 12.4225 72.6894 11.1992C58.7148 10.2461 43.7672 12.5506 32.0347 19.1511C18.878 26.5483 13.0117 38.7679 15.5923 51.6845Z" fill="#E5D9B6"/>
</g>
<path d="M77.52 72.28C78.0533 72.28 78.4933 72.4667 78.84 72.84C79.2133 73.1867 79.4 73.6267 79.4 74.16C79.4 74.6933 79.2133 75.1333 78.84 75.48C78.4933 75.8267 78.0533 76 77.52 76H63.48C62.8933 76 62.4267 75.8267 62.08 75.48C61.7333 75.1333 61.56 74.6667 61.56 74.08C61.56 73.5467 61.7467 73.0667 62.12 72.64L71.04 63C72.1867 61.7733 73.0667 60.56 73.68 59.36C74.32 58.16 74.64 57.1067 74.64 56.2C74.64 54.7333 74.2 53.5467 73.32 52.64C72.44 51.7333 71.28 51.28 69.84 51.28C69.2267 51.28 68.6 51.4267 67.96 51.72C67.3467 51.9867 66.76 52.36 66.2 52.84C65.6667 53.2933 65.2 53.8267 64.8 54.44C64.5333 54.8133 64.2667 55.0533 64 55.16C63.7333 55.2667 63.48 55.32 63.24 55.32C62.7333 55.32 62.2667 55.1467 61.84 54.8C61.44 54.4267 61.24 54 61.24 53.52C61.24 53.1467 61.36 52.7867 61.6 52.44C61.84 52.0933 62.1467 51.7333 62.52 51.36C63.1067 50.64 63.8133 50 64.64 49.44C65.4933 48.8533 66.3867 48.4 67.32 48.08C68.2533 47.76 69.1733 47.6 70.08 47.6C71.84 47.6 73.36 47.9467 74.64 48.64C75.9467 49.3333 76.9467 50.3067 77.64 51.56C78.36 52.8133 78.72 54.2933 78.72 56C78.72 57.44 78.28 59.04 77.4 60.8C76.5467 62.5333 75.3467 64.24 73.8 65.92L67.6 72.68L67.16 72.28H77.52Z" fill="#245B3C"/>
<defs>
<clipPath id="clip0_181_1245">
<rect width="105" height="101" fill="white" transform="translate(15 11)"/>
</clipPath>
</defs>
</svg>
