<?xml version="1.0" encoding="UTF-8"?>
<svg id="Layer_2" data-name="Layer 2" xmlns="http://www.w3.org/2000/svg" viewBox="0 0 174.48 197.11">
  <defs>
    <style>
      .cls-1 {
        fill: #252722;
      }

      .cls-2 {
        fill: #7d6659;
      }

      .cls-3 {
        fill: #cd5a24;
      }

      .cls-4 {
        fill: #ffc56e;
      }

      .cls-5 {
        fill: #ec7832;
      }

      .cls-6 {
        fill: #ccc4c0;
      }

      .cls-7 {
        fill: #87be00;
      }

      .cls-8 {
        fill: #e6e2e0;
      }

      .cls-9 {
        fill: #5f625e;
      }

      .cls-10 {
        fill: #beb5af;
      }

      .cls-11 {
        fill: #664a3b;
      }
    </style>
  </defs>
  <g id="achievements">
    <g>
      <ellipse class="cls-2" cx="87.24" cy="170.55" rx="87.24" ry="26.56"/>
      <path class="cls-8" d="M72.5,1.56c4.31-1.36,9.33-2.64,13.1-.14,4.14,2.74,5.08,9.08,9.61,11.12-13.24-1.01-26.72,1.36-38.82,6.82,3.68-2.08,3.3-7.48,5.39-11.16,2.13-3.75,6.62-5.34,10.73-6.64Z"/>
      <path class="cls-1" d="M105.61,150.15c2.33,3.26,4.27,7.72,2.09,11.08-2.23,3.42-8.95,5.42-15.15,4.21-19.78-3.86-35.32-10.45-54.5-16.63,.47-3.98,2.64-9.35,3.12-13.33,16.3,6.12,31.18,13.69,48.55,14.95-8.14-3.68-16.51-7.52-22.6-14.06-6.09-6.54-9.37-16.53-5.57-24.61,5.8-.15,14.86,1.11,14.86,1.11,4.41,14.18,20.55,25.21,29.2,37.29Z"/>
      <path class="cls-1" d="M31.71,156.61c1.68,.12,3.27-.95,4.23-2.34,.96-1.39,1.4-3.06,1.84-4.69,1.05-3.97,2.09-7.94,3.14-11.91,.25-.95,.46-2.08-.18-2.82-.36-.42-.9-.6-1.42-.77-2.73-.9-5.47-1.8-8.2-2.7-1.78,3.4-3.58,6.84-4.51,10.56-.93,3.72-.91,7.82,.84,11.24,.87,1.7,2.37,3.3,4.27,3.44Z"/>
      <path class="cls-9" d="M67.45,112.45c-7.13-1.07-14.27-2.15-21.4-3.22-1.88-.28-3.85-.56-5.64,.07-3.19,1.12-5.63,3.74-6.84,6.9-1.4,3.65-1.94,8.57-.66,12.26,1.19,3.46,4.44,5.72,7.54,7.66,11.45,7.17,23.57,13.28,36.15,18.21-14.11-3.88-27.87-9.02-41.07-15.34-1.52,4.88-3.66,11.52-5.19,16.4,0,0,33.86,8.1,51.59,9.99,4.16,.44,10.69-1.79,13.31-5.05,1.98-2.46,1.87-6.12,.56-9-1.32-2.88-3.63-5.16-5.89-7.37-5.89-5.76-11.78-11.52-17.67-17.28-1.97-1.92-3.97-3.9-5.14-6.4-1.16-2.49-1.31-5.65,.34-7.84Z"/>
      <path class="cls-1" d="M26.76,160.26c1.68,.12,3.27-.95,4.23-2.34,.96-1.39,1.4-3.06,1.84-4.69,1.05-3.97,2.09-7.94,3.14-11.91,.25-.95,.46-2.08-.18-2.83-.36-.41-.9-.6-1.42-.77-2.74-.9-5.47-1.8-8.2-2.71-1.78,3.4-3.58,6.84-4.51,10.56-.93,3.72-.91,7.82,.84,11.24,.87,1.7,2.36,3.3,4.27,3.44Z"/>
      <path class="cls-4" d="M117.85,111.95c.74-.43,2.53-1.05,2.53-1.05,0,0,7.76,3.62,5.34,8.26-.96,1.84-4.28,3.11-6.33,2.78-3.57-.56-6.5-2.26-8.88-4.99,2.3-1.32,5.04-3.67,7.34-5Z"/>
      <path class="cls-10" d="M108.03,23.41c-.69-5.36-6.03-8.83-11.14-10.61-9.5-3.32-20.11-3.4-29.66-.23-5.41,1.8-10.67,4.79-13.76,9.58-3.09,4.79-3.43,11.63,.31,15.93,3.71,4.26,10.03,4.92,15.68,4.77,7.04-.2,14.07-1.19,20.89-2.97,5.32-1.39,10.76-3.4,14.44-7.5,2.19-2.44,3.67-5.72,3.25-8.97Z"/>
      <path class="cls-4" d="M80.92,51.42c4.94-.93,8.88-4.87,11.11-9.37,2.23-4.5,3.02-9.56,3.78-14.52,.48-3.16,.9-6.65-.84-9.34-1.59-2.44-4.58-3.56-7.44-4.09-9.12-1.68-18.99,1.35-25.59,7.86-.55,6.77-.46,13.87,2.57,19.94,3.03,6.07,9.74,10.76,16.41,9.51Z"/>
      <path class="cls-4" d="M62.48,36.75c-.33-1.48-.05-3.02,.19-4.52,.24-1.5,.46-3.05,.02-4.51-.44-1.45-1.71-2.77-3.22-2.76-1.76,.01-3.1,1.84-3.09,3.59,0,1.76,1.03,3.35,2.25,4.61,1.22,1.26,2.67,2.28,3.85,3.58Z"/>
      <path class="cls-1" d="M63.89,17.57c8.72-7.43,15.69-3.93,15.69-3.93-3.27,6.34-12.46,14.73-17.94,19.3-.57-2.31-1.04-4.67-1.04-7.05-.01-4.11,1.48-6.78,3.29-8.32Z"/>
      <path class="cls-1" d="M86.29,28.98c8.99,1.88,13.02-.34,13.02-.34,1.59-4.27,.19-9.62-3.65-12.07-3.83-2.46-9.08-3.65-13.61-4.09-8.14-.8-12.72,1.64-12.72,1.64,2.8,6.66,9.89,13.39,16.95,14.87Z"/>
      <path class="cls-4" d="M82.12,51.52c-.29-1.55-.22-3.1,.09-4.63-.8,.21-1.61,.35-2.47,.35-1.96,0-3.78-.6-5.35-1.59-.29,1.5-.7,2.97-1.31,4.37-1.55,3.58-4.65,6.74-8.51,7.26,.12,4.98,.76,9.95,1.9,14.79,.6,2.53,1.37,5.09,2.93,7.17,1.56,2.08,4.08,3.61,6.66,3.36,3.37-.32,5.82-3.45,6.89-6.65,1.07-3.21,1.17-6.66,2.15-9.9,.98-3.23,3.23-6.46,6.56-7.04-4.42,.85-8.74-3.06-9.55-7.49Z"/>
      <path class="cls-3" d="M89.74,58.97c1.98-.42,4.06,.61,5.36,2.15,1.3,1.55,1.96,3.53,2.42,5.5,1.59,6.77,1.21,13.89,2.88,20.63,2.58,10.45,10.28,19.5,20.18,23.72,0,0-6.31,4.79-8.95,6.28-9.67-3.5-17-12.34-22.07-21.29-5.08-8.94-6.84-19.72-4.89-29.82,.59-3.06,2.02-6.55,5.06-7.19Z"/>
      <path class="cls-5" d="M92.01,59.08c-4.78,18.04-9.39,37.7-15,55.5-10.36,1.77-24.91,.99-38.12-4.49,3.77-15.71,7.13-29.7,10.9-45.42,.55-2.28,2.55-5.88,3.94-7.77,0,0,5.93-.89,15.89-2.4,3.71,6.66,13.41,3.68,14.42,1.21,0,0,4.87,2.83,7.97,3.37Z"/>
      <g>
        <path class="cls-7" d="M115.18,93.32c.61-2,2.18-3.69,4.14-4.44,1.5-.58,3.16-.62,4.7-1.07,2.71-.79,4.99-2.92,5.96-5.56,.44,2.64,.88,5.32,.51,7.97-.37,2.65-1.67,5.3-3.99,6.63-1.96,1.13-4.34,1.19-6.6,1.21-1.58,.02-3.39-.07-4.36-1.31-.74-.95-.72-2.29-.38-3.43Z"/>
        <path class="cls-7" d="M113.49,87.08c-1.91-2.34-4.18-4.38-6.7-6.05-.68,2.88-1.1,5.88-.55,8.79,.55,2.91,2.21,5.72,4.84,7.07,1.41,.73,3.3,.93,4.47-.13,.96-.86,1.16-2.3,.99-3.57-.31-2.28-1.59-4.32-3.05-6.1Z"/>
        <path class="cls-7" d="M117.19,125.29c-.56-.38-1.19-.79-1.45-1.53-.1-.27-.05-.73,.03-1.14,.17-.84,.31-1.67,.38-2.52,.32-4.2,1.18-15.29,1.68-21.28,.07-.88,.12-1.83-.36-2.57-.48-.74-1.73-1-2.21-.26-.63,8.25-1.26,16.49-1.89,24.73-.83,.29-1.65,.63-2.38,1.21-.92,.73-1.67,1.92-1.74,3.27-.06,1.21,.43,2.36,.97,3.38,.53,1.02,1.14,2.03,1.36,3.21,.22,1.18-.07,2.62-.94,3.18,1.07,.24,2.04-1.04,2.24-2.37,.19-1.33-.85-3.18-1.43-4.85-.44-1.26-1.07-2.33,.07-3.96,.15-.21,.43-.36,.74-.51,0,.01,0,.02,0,.03-.17,1.4,.26,2.79,.77,4.05,.51,1.26,1.1,2.5,1.3,3.89,.2,1.39-.1,3-1.06,3.77,1.41,.12,3.59-2.22,.97-8.18-.24-.54-.73-2.17-.33-3.02,.09-.19,.21-.31,.35-.4,.05,.21,.12,.42,.21,.6,.36,.76,.97,1.28,1.57,1.74s1.24,.89,1.72,1.54c1.11,1.5,1.13,3.91,.39,5.74,1.09-.42,2.95-5.05-.95-7.73Z"/>
      </g>
      <path class="cls-11" d="M167.75,169.95c-1.97-9.45-7.14-17.93-13.73-22.43-9.23-6.29-20.53-5.28-29.47,1.03-6.85,4.83-12.38,12.49-16.45,21.4h59.65Z"/>
      <path class="cls-4" d="M116.32,118.55c.77-2.69-.93-5.53-3.14-7.25-1.78-1.38-3.92-2.28-6.14-2.6-1.91,3.62-3.82,7.24-5.73,10.86,2.53,1.44,5.17,2.92,8.07,3.11,2.9,.19,6.14-1.31,6.94-4.11Z"/>
      <path class="cls-3" d="M80.46,96.07c-5.53-2.7-9.62-7.65-11.23-13.58-1.4-5.19-2.39-9.93-4.11-17.62-.6-2.68-1.56-4.75-3.69-6.48-2.14-1.73-5.18-2.6-7.69-1.48-2.55,1.14-3.92,4.05-4.04,6.84-.12,2.79,2.01,22.26,4.72,30.27,.93,2.76,1.92,5.6,3.89,7.74,1.87,2.03,4.44,3.23,6.96,4.34,12.07,5.37,24.42,10.1,36.99,14.14,2.76-3.58,4.96-7.59,6.49-11.84-4.67-1.03-18.97-7.79-28.27-12.33Z"/>
      <g>
        <path class="cls-1" d="M86.38,168.98l-4.7,16.12s19.63,5.31,24.31-3.41c4.58-8.53-19.61-12.71-19.61-12.71Z"/>
        <path class="cls-6" d="M92.73,178.46c.3-.75-3.36-2.01-4.48-2.24l-55.07-11.5c-2.15-.36-4.25,.4-4.93,1.8l-.03,.06c-.84,1.73,.83,3.67,3.51,4.06l55.73,8.35c1.04,.15,5.01,.17,5.28-.52h0Z"/>
      </g>
    </g>
  </g>
</svg>